<mxfile host="app.diagrams.net" agent="Mozilla/5.0 (Windows NT 10.0; Win64; x64) AppleWebKit/537.36 (KHTML, like Gecko) Chrome/133.0.0.0 Safari/537.36" version="26.0.8">
  <diagram id="f106602c-feb2-e66a-4537-3a34d633f6aa" name="Page-1">
    <mxGraphModel dx="1500" dy="746" grid="1" gridSize="10" guides="1" tooltips="1" connect="1" arrows="1" fold="1" page="1" pageScale="1" pageWidth="1169" pageHeight="827" background="none" math="0" shadow="0">
      <root>
        <mxCell id="0" />
        <mxCell id="1" parent="0" />
        <mxCell id="Lif8JBEafslfNm7ranTe-1" value="FRED_DB" style="fillColor=#F6F6F6;strokeColor=default;shadow=1;gradientColor=none;fontSize=14;align=left;spacing=10;fontColor=#717171;9E9E9E;verticalAlign=top;spacingTop=-4;fontStyle=0;spacingLeft=40;html=1;glass=1;strokeWidth=0;rounded=0;imageBackground=light-dark(#292424, #ededed);" parent="1" vertex="1">
          <mxGeometry x="490" y="150" width="870" height="700" as="geometry" />
        </mxCell>
        <mxCell id="Lif8JBEafslfNm7ranTe-4" value="&lt;b&gt;Architecture: FRED T102Y Incremental Data Processing Architecture&lt;/b&gt;" style="fillColor=#4DA1F5;strokeColor=none;shadow=1;gradientColor=none;fontSize=14;align=center;spacingLeft=50;fontColor=#ffffff;html=1;" parent="1" vertex="1">
          <mxGeometry x="490" y="90" width="870" height="40" as="geometry" />
        </mxCell>
        <mxCell id="8N-V9I-CrBm6m9oQKu6N-10" value="" style="group" vertex="1" connectable="0" parent="1">
          <mxGeometry x="900" y="230" width="185" height="60" as="geometry" />
        </mxCell>
        <mxCell id="8N-V9I-CrBm6m9oQKu6N-6" value="" style="strokeColor=#dddddd;shadow=1;strokeWidth=1;rounded=1;absoluteArcSize=1;arcSize=2;container=0;" vertex="1" parent="8N-V9I-CrBm6m9oQKu6N-10">
          <mxGeometry width="185" height="60" as="geometry" />
        </mxCell>
        <mxCell id="8N-V9I-CrBm6m9oQKu6N-5" value="" style="sketch=0;outlineConnect=0;fontColor=#232F3E;gradientColor=none;fillColor=#01A88D;strokeColor=none;dashed=0;verticalLabelPosition=bottom;verticalAlign=top;align=center;html=1;fontSize=12;fontStyle=0;aspect=fixed;pointerEvents=1;shape=mxgraph.aws4.sagemaker_notebook;" vertex="1" parent="8N-V9I-CrBm6m9oQKu6N-10">
          <mxGeometry x="10" y="10" width="34.87" height="40" as="geometry" />
        </mxCell>
        <mxCell id="8N-V9I-CrBm6m9oQKu6N-8" value="&lt;div style=&quot;line-height: 150%;&quot;&gt;Deploy Objects&amp;nbsp;&lt;br&gt;&lt;/div&gt;" style="text;align=center;verticalAlign=middle;resizable=0;points=[];autosize=1;strokeColor=none;fillColor=none;html=1;" vertex="1" parent="8N-V9I-CrBm6m9oQKu6N-10">
          <mxGeometry x="60" y="10" width="110" height="30" as="geometry" />
        </mxCell>
        <mxCell id="8N-V9I-CrBm6m9oQKu6N-9" value="Notebook" style="text;html=1;align=center;verticalAlign=middle;resizable=0;points=[];autosize=1;strokeColor=none;fillColor=none;textOpacity=50;" vertex="1" parent="8N-V9I-CrBm6m9oQKu6N-10">
          <mxGeometry x="75" y="30" width="70" height="30" as="geometry" />
        </mxCell>
        <mxCell id="8N-V9I-CrBm6m9oQKu6N-11" value="" style="group" vertex="1" connectable="0" parent="1">
          <mxGeometry x="900" y="384" width="185" height="60" as="geometry" />
        </mxCell>
        <mxCell id="8N-V9I-CrBm6m9oQKu6N-12" value="" style="strokeColor=#dddddd;shadow=1;strokeWidth=1;rounded=1;absoluteArcSize=1;arcSize=2;container=0;" vertex="1" parent="8N-V9I-CrBm6m9oQKu6N-11">
          <mxGeometry width="185" height="60" as="geometry" />
        </mxCell>
        <mxCell id="8N-V9I-CrBm6m9oQKu6N-13" value="" style="sketch=0;outlineConnect=0;fontColor=#232F3E;gradientColor=none;fillColor=#01A88D;strokeColor=none;dashed=0;verticalLabelPosition=bottom;verticalAlign=top;align=center;html=1;fontSize=12;fontStyle=0;aspect=fixed;pointerEvents=1;shape=mxgraph.aws4.sagemaker_notebook;" vertex="1" parent="8N-V9I-CrBm6m9oQKu6N-11">
          <mxGeometry x="10" y="10" width="34.87" height="40" as="geometry" />
        </mxCell>
        <mxCell id="8N-V9I-CrBm6m9oQKu6N-14" value="&lt;div style=&quot;line-height: 150%;&quot;&gt;Process FRED Data&lt;/div&gt;" style="text;align=center;verticalAlign=middle;resizable=0;points=[];autosize=1;strokeColor=none;fillColor=none;html=1;" vertex="1" parent="8N-V9I-CrBm6m9oQKu6N-11">
          <mxGeometry x="50" y="10" width="130" height="30" as="geometry" />
        </mxCell>
        <mxCell id="8N-V9I-CrBm6m9oQKu6N-15" value="Notebook" style="text;html=1;align=center;verticalAlign=middle;resizable=0;points=[];autosize=1;strokeColor=none;fillColor=none;textOpacity=50;" vertex="1" parent="8N-V9I-CrBm6m9oQKu6N-11">
          <mxGeometry x="75" y="30" width="70" height="30" as="geometry" />
        </mxCell>
        <mxCell id="8N-V9I-CrBm6m9oQKu6N-25" value="" style="group" vertex="1" connectable="0" parent="1">
          <mxGeometry x="1140" y="384" width="185" height="60" as="geometry" />
        </mxCell>
        <mxCell id="8N-V9I-CrBm6m9oQKu6N-26" value="" style="strokeColor=#dddddd;shadow=1;strokeWidth=1;rounded=1;absoluteArcSize=1;arcSize=2;container=0;" vertex="1" parent="8N-V9I-CrBm6m9oQKu6N-25">
          <mxGeometry width="185" height="60" as="geometry" />
        </mxCell>
        <mxCell id="8N-V9I-CrBm6m9oQKu6N-28" value="&lt;div style=&quot;line-height: 150%;&quot;&gt;Load Every Day&lt;/div&gt;" style="text;align=center;verticalAlign=middle;resizable=0;points=[];autosize=1;strokeColor=none;fillColor=none;html=1;" vertex="1" parent="8N-V9I-CrBm6m9oQKu6N-25">
          <mxGeometry x="55" y="10" width="110" height="30" as="geometry" />
        </mxCell>
        <mxCell id="8N-V9I-CrBm6m9oQKu6N-29" value="Task" style="text;html=1;align=center;verticalAlign=middle;resizable=0;points=[];autosize=1;strokeColor=none;fillColor=none;textOpacity=50;" vertex="1" parent="8N-V9I-CrBm6m9oQKu6N-25">
          <mxGeometry x="85" y="30" width="50" height="30" as="geometry" />
        </mxCell>
        <mxCell id="8N-V9I-CrBm6m9oQKu6N-30" value="" style="image;sketch=0;aspect=fixed;html=1;points=[];align=center;fontSize=12;image=img/lib/mscae/SchedulerJobCollection.svg;" vertex="1" parent="8N-V9I-CrBm6m9oQKu6N-25">
          <mxGeometry x="10" y="10" width="46.51" height="40" as="geometry" />
        </mxCell>
        <mxCell id="8N-V9I-CrBm6m9oQKu6N-94" style="edgeStyle=orthogonalEdgeStyle;rounded=0;elbow=vertical;html=1;labelBackgroundColor=none;startFill=1;startSize=4;endArrow=blockThin;endFill=1;endSize=4;jettySize=auto;orthogonalLoop=1;strokeColor=#4284F3;strokeWidth=2;fontSize=12;fontColor=#000000;align=left;dashed=0;entryX=1;entryY=0.5;entryDx=0;entryDy=0;exitX=0;exitY=0.5;exitDx=0;exitDy=0;" edge="1" parent="8N-V9I-CrBm6m9oQKu6N-25" source="8N-V9I-CrBm6m9oQKu6N-26">
          <mxGeometry relative="1" as="geometry">
            <Array as="points" />
            <mxPoint x="-10" y="31" as="sourcePoint" />
            <mxPoint x="-51.74000000000001" y="30.5" as="targetPoint" />
          </mxGeometry>
        </mxCell>
        <mxCell id="8N-V9I-CrBm6m9oQKu6N-55" value="" style="group" vertex="1" connectable="0" parent="1">
          <mxGeometry x="520" y="353.5" width="210" height="120" as="geometry" />
        </mxCell>
        <mxCell id="8N-V9I-CrBm6m9oQKu6N-47" value="" style="rounded=1;whiteSpace=wrap;html=1;fillColor=#f5f5f5;fontColor=#333333;strokeColor=#666666;" vertex="1" parent="8N-V9I-CrBm6m9oQKu6N-55">
          <mxGeometry width="210" height="120" as="geometry" />
        </mxCell>
        <mxCell id="8N-V9I-CrBm6m9oQKu6N-33" value="" style="group" vertex="1" connectable="0" parent="8N-V9I-CrBm6m9oQKu6N-55">
          <mxGeometry x="20" y="40" width="165" height="60" as="geometry" />
        </mxCell>
        <mxCell id="8N-V9I-CrBm6m9oQKu6N-34" value="" style="strokeColor=#dddddd;shadow=1;strokeWidth=1;rounded=1;absoluteArcSize=1;arcSize=2;container=0;" vertex="1" parent="8N-V9I-CrBm6m9oQKu6N-33">
          <mxGeometry width="165" height="60" as="geometry" />
        </mxCell>
        <mxCell id="8N-V9I-CrBm6m9oQKu6N-36" value="&lt;div style=&quot;line-height: 150%;&quot;&gt;S3 NR&lt;/div&gt;" style="text;align=center;verticalAlign=middle;resizable=0;points=[];autosize=1;strokeColor=none;fillColor=none;html=1;" vertex="1" parent="8N-V9I-CrBm6m9oQKu6N-33">
          <mxGeometry x="60.00135135135135" y="10" width="60" height="30" as="geometry" />
        </mxCell>
        <mxCell id="8N-V9I-CrBm6m9oQKu6N-37" value="Network Rule" style="text;html=1;align=center;verticalAlign=middle;resizable=0;points=[];autosize=1;strokeColor=none;fillColor=none;textOpacity=50;" vertex="1" parent="8N-V9I-CrBm6m9oQKu6N-33">
          <mxGeometry x="51.35297297297298" y="30" width="100" height="30" as="geometry" />
        </mxCell>
        <mxCell id="8N-V9I-CrBm6m9oQKu6N-40" value="" style="sketch=0;outlineConnect=0;fontColor=#232F3E;gradientColor=none;fillColor=#8C4FFF;strokeColor=none;dashed=0;verticalLabelPosition=bottom;verticalAlign=top;align=center;html=1;fontSize=12;fontStyle=0;aspect=fixed;pointerEvents=1;shape=mxgraph.aws4.network_access_control_list;" vertex="1" parent="8N-V9I-CrBm6m9oQKu6N-33">
          <mxGeometry x="9.004864864864864" y="12.61" width="34.78378378378378" height="34.78378378378378" as="geometry" />
        </mxCell>
        <mxCell id="8N-V9I-CrBm6m9oQKu6N-53" value="External Access Integration" style="text;html=1;align=center;verticalAlign=middle;resizable=0;points=[];autosize=1;strokeColor=none;fillColor=none;textOpacity=50;" vertex="1" parent="8N-V9I-CrBm6m9oQKu6N-55">
          <mxGeometry x="20.00297297297311" y="10" width="170" height="30" as="geometry" />
        </mxCell>
        <mxCell id="8N-V9I-CrBm6m9oQKu6N-66" value="" style="sketch=0;points=[[0,0,0],[0.25,0,0],[0.5,0,0],[0.75,0,0],[1,0,0],[0,1,0],[0.25,1,0],[0.5,1,0],[0.75,1,0],[1,1,0],[0,0.25,0],[0,0.5,0],[0,0.75,0],[1,0.25,0],[1,0.5,0],[1,0.75,0]];outlineConnect=0;fontColor=#232F3E;fillColor=#8C4FFF;strokeColor=#ffffff;dashed=0;verticalLabelPosition=bottom;verticalAlign=top;align=center;html=1;fontSize=12;fontStyle=0;aspect=fixed;shape=mxgraph.aws4.resourceIcon;resIcon=mxgraph.aws4.verified_access;" vertex="1" parent="8N-V9I-CrBm6m9oQKu6N-55">
          <mxGeometry x="-10" y="-10" width="30" height="30" as="geometry" />
        </mxCell>
        <mxCell id="8N-V9I-CrBm6m9oQKu6N-56" value="" style="group" vertex="1" connectable="0" parent="1">
          <mxGeometry x="525" y="200" width="205" height="120" as="geometry" />
        </mxCell>
        <mxCell id="8N-V9I-CrBm6m9oQKu6N-31" value="" style="rounded=1;whiteSpace=wrap;html=1;fillColor=#f5f5f5;fontColor=#333333;strokeColor=#666666;" vertex="1" parent="8N-V9I-CrBm6m9oQKu6N-56">
          <mxGeometry width="205" height="120" as="geometry" />
        </mxCell>
        <mxCell id="8N-V9I-CrBm6m9oQKu6N-41" value="" style="group" vertex="1" connectable="0" parent="8N-V9I-CrBm6m9oQKu6N-56">
          <mxGeometry x="19.523809523809522" y="40" width="161.07142857142856" height="60" as="geometry" />
        </mxCell>
        <mxCell id="8N-V9I-CrBm6m9oQKu6N-42" value="" style="strokeColor=#dddddd;shadow=1;strokeWidth=1;rounded=1;absoluteArcSize=1;arcSize=2;container=0;" vertex="1" parent="8N-V9I-CrBm6m9oQKu6N-41">
          <mxGeometry width="161.07142857142856" height="60" as="geometry" />
        </mxCell>
        <mxCell id="8N-V9I-CrBm6m9oQKu6N-43" value="&lt;div style=&quot;line-height: 150%;&quot;&gt;FRED API NR&lt;/div&gt;" style="text;align=center;verticalAlign=middle;resizable=0;points=[];autosize=1;strokeColor=none;fillColor=none;html=1;" vertex="1" parent="8N-V9I-CrBm6m9oQKu6N-41">
          <mxGeometry x="50.128700128700125" y="10" width="100" height="30" as="geometry" />
        </mxCell>
        <mxCell id="8N-V9I-CrBm6m9oQKu6N-44" value="Network Rule" style="text;html=1;align=center;verticalAlign=middle;resizable=0;points=[];autosize=1;strokeColor=none;fillColor=none;textOpacity=50;" vertex="1" parent="8N-V9I-CrBm6m9oQKu6N-41">
          <mxGeometry x="50.13028314028314" y="30" width="100" height="30" as="geometry" />
        </mxCell>
        <mxCell id="8N-V9I-CrBm6m9oQKu6N-45" value="" style="sketch=0;outlineConnect=0;fontColor=#232F3E;gradientColor=none;fillColor=#8C4FFF;strokeColor=none;dashed=0;verticalLabelPosition=bottom;verticalAlign=top;align=center;html=1;fontSize=12;fontStyle=0;aspect=fixed;pointerEvents=1;shape=mxgraph.aws4.network_access_control_list;" vertex="1" parent="8N-V9I-CrBm6m9oQKu6N-41">
          <mxGeometry x="10.74284427284427" y="10" width="33.95559845559845" height="33.95559845559845" as="geometry" />
        </mxCell>
        <mxCell id="8N-V9I-CrBm6m9oQKu6N-46" value="External Access Integration" style="text;html=1;align=center;verticalAlign=middle;resizable=0;points=[];autosize=1;strokeColor=none;fillColor=none;textOpacity=50;" vertex="1" parent="8N-V9I-CrBm6m9oQKu6N-56">
          <mxGeometry x="19.526711711711847" y="10" width="170" height="30" as="geometry" />
        </mxCell>
        <mxCell id="8N-V9I-CrBm6m9oQKu6N-39" value="" style="sketch=0;points=[[0,0,0],[0.25,0,0],[0.5,0,0],[0.75,0,0],[1,0,0],[0,1,0],[0.25,1,0],[0.5,1,0],[0.75,1,0],[1,1,0],[0,0.25,0],[0,0.5,0],[0,0.75,0],[1,0.25,0],[1,0.5,0],[1,0.75,0]];outlineConnect=0;fontColor=#232F3E;fillColor=#8C4FFF;strokeColor=#ffffff;dashed=0;verticalLabelPosition=bottom;verticalAlign=top;align=center;html=1;fontSize=12;fontStyle=0;aspect=fixed;shape=mxgraph.aws4.resourceIcon;resIcon=mxgraph.aws4.verified_access;" vertex="1" parent="8N-V9I-CrBm6m9oQKu6N-56">
          <mxGeometry x="-10.470000000000027" y="-10" width="30" height="30" as="geometry" />
        </mxCell>
        <mxCell id="8N-V9I-CrBm6m9oQKu6N-67" value="" style="group" vertex="1" connectable="0" parent="1">
          <mxGeometry x="270" y="190" width="90" height="265" as="geometry" />
        </mxCell>
        <mxCell id="8N-V9I-CrBm6m9oQKu6N-4" value="S3" style="rounded=1;absoluteArcSize=1;arcSize=2;html=1;strokeColor=none;gradientColor=none;shadow=1;dashed=0;fontSize=12;fontColor=#9E9E9E;align=center;verticalAlign=top;spacing=10;spacingTop=-4;fillColor=#F1F8E9;" vertex="1" parent="8N-V9I-CrBm6m9oQKu6N-67">
          <mxGeometry y="159" width="90" height="106" as="geometry" />
        </mxCell>
        <mxCell id="Lif8JBEafslfNm7ranTe-3" value="FRED API" style="rounded=1;absoluteArcSize=1;arcSize=2;html=1;strokeColor=none;gradientColor=none;shadow=1;dashed=0;fontSize=12;fontColor=#9E9E9E;align=center;verticalAlign=top;spacing=10;spacingTop=-4;fillColor=#F1F8E9;" parent="8N-V9I-CrBm6m9oQKu6N-67" vertex="1">
          <mxGeometry y="10" width="90" height="110" as="geometry" />
        </mxCell>
        <mxCell id="8N-V9I-CrBm6m9oQKu6N-1" value="" style="aspect=fixed;sketch=0;html=1;dashed=0;whitespace=wrap;verticalLabelPosition=bottom;verticalAlign=top;fillColor=#2875E2;strokeColor=#ffffff;points=[[0.005,0.63,0],[0.1,0.2,0],[0.9,0.2,0],[0.5,0,0],[0.995,0.63,0],[0.72,0.99,0],[0.5,1,0],[0.28,0.99,0]];shape=mxgraph.kubernetes.icon2;kubernetesLabel=1;prIcon=api" vertex="1" parent="8N-V9I-CrBm6m9oQKu6N-67">
          <mxGeometry x="20" y="46" width="50" height="48" as="geometry" />
        </mxCell>
        <mxCell id="8N-V9I-CrBm6m9oQKu6N-2" value="" style="sketch=0;points=[[0,0,0],[0.25,0,0],[0.5,0,0],[0.75,0,0],[1,0,0],[0,1,0],[0.25,1,0],[0.5,1,0],[0.75,1,0],[1,1,0],[0,0.25,0],[0,0.5,0],[0,0.75,0],[1,0.25,0],[1,0.5,0],[1,0.75,0]];outlineConnect=0;fontColor=#232F3E;fillColor=#7AA116;strokeColor=#ffffff;dashed=0;verticalLabelPosition=bottom;verticalAlign=top;align=center;html=1;fontSize=12;fontStyle=0;aspect=fixed;shape=mxgraph.aws4.resourceIcon;resIcon=mxgraph.aws4.s3;" vertex="1" parent="8N-V9I-CrBm6m9oQKu6N-67">
          <mxGeometry x="22.5" y="191.5" width="45" height="45" as="geometry" />
        </mxCell>
        <mxCell id="Lif8JBEafslfNm7ranTe-5" style="edgeStyle=orthogonalEdgeStyle;rounded=0;elbow=vertical;html=1;labelBackgroundColor=none;startFill=1;startSize=4;endArrow=blockThin;endFill=1;endSize=4;jettySize=auto;orthogonalLoop=1;strokeColor=#4284F3;strokeWidth=2;fontSize=12;fontColor=#000000;align=left;dashed=0;entryX=1;entryY=0.5;entryDx=0;entryDy=0;exitX=-0.003;exitY=0.443;exitDx=0;exitDy=0;exitPerimeter=0;" parent="1" source="8N-V9I-CrBm6m9oQKu6N-31" target="Lif8JBEafslfNm7ranTe-3" edge="1">
          <mxGeometry relative="1" as="geometry">
            <Array as="points">
              <mxPoint x="524" y="255" />
            </Array>
            <mxPoint x="520" y="255" as="sourcePoint" />
            <mxPoint x="490.0000000000001" y="259.47" as="targetPoint" />
          </mxGeometry>
        </mxCell>
        <mxCell id="8N-V9I-CrBm6m9oQKu6N-69" style="edgeStyle=orthogonalEdgeStyle;rounded=0;elbow=vertical;html=1;labelBackgroundColor=none;startFill=1;startSize=4;endArrow=blockThin;endFill=1;endSize=4;jettySize=auto;orthogonalLoop=1;strokeColor=#4284F3;strokeWidth=2;fontSize=12;fontColor=#000000;align=left;dashed=0;entryX=1;entryY=0.5;entryDx=0;entryDy=0;exitX=-0.003;exitY=0.443;exitDx=0;exitDy=0;exitPerimeter=0;" edge="1" parent="1" target="8N-V9I-CrBm6m9oQKu6N-4">
          <mxGeometry relative="1" as="geometry">
            <Array as="points">
              <mxPoint x="520" y="401" />
              <mxPoint x="360" y="401" />
            </Array>
            <mxPoint x="519.95" y="399" as="sourcePoint" />
            <mxPoint x="365.95" y="401" as="targetPoint" />
          </mxGeometry>
        </mxCell>
        <mxCell id="8N-V9I-CrBm6m9oQKu6N-70" style="edgeStyle=orthogonalEdgeStyle;rounded=0;elbow=vertical;html=1;labelBackgroundColor=none;startFill=1;startSize=4;endArrow=blockThin;endFill=1;endSize=4;jettySize=auto;orthogonalLoop=1;strokeColor=#4284F3;strokeWidth=2;fontSize=12;fontColor=#000000;align=left;dashed=0;exitX=0;exitY=0.5;exitDx=0;exitDy=0;entryX=1;entryY=0.5;entryDx=0;entryDy=0;" edge="1" parent="1" source="8N-V9I-CrBm6m9oQKu6N-6" target="8N-V9I-CrBm6m9oQKu6N-31">
          <mxGeometry relative="1" as="geometry">
            <Array as="points" />
            <mxPoint x="870" y="259.47" as="sourcePoint" />
            <mxPoint x="750" y="260" as="targetPoint" />
          </mxGeometry>
        </mxCell>
        <mxCell id="8N-V9I-CrBm6m9oQKu6N-72" style="edgeStyle=orthogonalEdgeStyle;rounded=0;elbow=vertical;html=1;labelBackgroundColor=none;startFill=1;startSize=4;endArrow=blockThin;endFill=1;endSize=4;jettySize=auto;orthogonalLoop=1;strokeColor=#4284F3;strokeWidth=2;fontSize=12;fontColor=#000000;align=left;dashed=0;entryX=1;entryY=0.5;entryDx=0;entryDy=0;" edge="1" parent="1" target="8N-V9I-CrBm6m9oQKu6N-47">
          <mxGeometry relative="1" as="geometry">
            <Array as="points" />
            <mxPoint x="900" y="413.5" as="sourcePoint" />
            <mxPoint x="740" y="397.24" as="targetPoint" />
          </mxGeometry>
        </mxCell>
        <mxCell id="8N-V9I-CrBm6m9oQKu6N-74" value="" style="group" vertex="1" connectable="0" parent="1">
          <mxGeometry x="1020" y="540" width="185" height="60" as="geometry" />
        </mxCell>
        <mxCell id="8N-V9I-CrBm6m9oQKu6N-75" value="" style="strokeColor=#dddddd;shadow=1;strokeWidth=1;rounded=1;absoluteArcSize=1;arcSize=2;container=0;" vertex="1" parent="8N-V9I-CrBm6m9oQKu6N-74">
          <mxGeometry width="185" height="60" as="geometry" />
        </mxCell>
        <mxCell id="8N-V9I-CrBm6m9oQKu6N-76" value="&lt;div style=&quot;line-height: 150%;&quot;&gt;Fred API Request&lt;/div&gt;" style="text;align=center;verticalAlign=middle;resizable=0;points=[];autosize=1;strokeColor=none;fillColor=none;html=1;" vertex="1" parent="8N-V9I-CrBm6m9oQKu6N-74">
          <mxGeometry x="50" y="10" width="120" height="30" as="geometry" />
        </mxCell>
        <mxCell id="8N-V9I-CrBm6m9oQKu6N-77" value="UDF" style="text;html=1;align=center;verticalAlign=middle;resizable=0;points=[];autosize=1;strokeColor=none;fillColor=none;textOpacity=50;" vertex="1" parent="8N-V9I-CrBm6m9oQKu6N-74">
          <mxGeometry x="67.5" y="30" width="50" height="30" as="geometry" />
        </mxCell>
        <mxCell id="8N-V9I-CrBm6m9oQKu6N-84" value="" style="shape=image;verticalLabelPosition=bottom;labelBackgroundColor=default;verticalAlign=top;aspect=fixed;imageAspect=0;image=data:image/png,iVBORw0KGgoAAAANSUhEUgAAAOEAAADhCAMAAAAJbSJIAAAArlBMVEX///83caH/0kL/0TwubZ+Cn7H/3nz/0DI0b6D/3HFFeqIoaZ3/78GxxNX/34JfhqD/1EkmaJf4+fn/56T/zy7/1lT5+PIcZZzN193//vjo7Ov/2Fz//PD/8s3/2WPw8u7/99//5JX/67L/9dlPfZs7cpihtb+3xs3BzdHX3t3G0dP/89H/8Mf/5ZgdZZj/7LfI1eGMp7prkKp2lqtHeZ1YhKecsr9ylbBwkqaYsMIBjsUhAAAH+0lEQVR4nO2da1fiPBCApS20Wl8QCcQiQgELooLLzXX//x97i0Jv3KaTtFM5eT74YT2H7WMukyaT4epKoVAoFAqFQqFQKBQKhUKhUCgUCnk4rfbk4c/Dlj8Pk3avRf1Mcrif/BnNF8+ePZvZts3tAD6zvefFfPTSpn5EPM5kVF7NfCnDsKzSASzLMDaq6/L4F2r2xos6t42DZnumhs295ctv6rWtcW0GtAsteX3x6lA/OYzevM5T2e0wuDe6p37687Tm3Eb5fbekXR8VvR1f6jZWb+tYeqV2OIWzxPXPmCNfFrcZeyuxBtxie0UNHj3PkCHoN2N9Qu1yEGclSXCjWMhWLMe6qGUdXsgAFUsFjP8THnlCP7St1x7HN6q9oPbZp2ZEn2/iz4dOu4yfWvkLtVCSaBPycfCv6OhveUWLGaNwFIaCvuIM3Yjj4/8ZCV9BJzViQ2iEDZHWmkrlCDdBd+SxYObUsf101qNyOcxN8Lf34r9YYidUu2BzTWBoJOZ5dDe1P2lMjhEa/o3/Am1oLGlMjhH20uf4L+bYXlpYwxKPzxArdESsEakcITQ0YuMntpi7EMPSLPJi4KCbsMiGlhf20wX+nbjAhv7r3TaUTURe+otsWLL4zXw8/lwL7doU2vB7H9vG7yr+BkMJKMO8UYbKUBnSowx/v2HJBgJ+XSya4X9QRlDFohmCaUEX48qwsChDZZg9vYfRfPm1LKMp9lza/lzZ3DaEAAoGho/NON3qwM3K77XG0+VyCbEzvNO1GLpusrtGJwO/9lrg1FrEUNvHl+xLP0H9nOXqd9rwuynfpfq1alKSgSQaahqrShRse7kLnjfUzK40wR76IDdTQ01/lCTY8ggEIYaafi3HsJbzHAM31My+DMHP/Mcg2FBjEmZU/AlgHoaaLh4X8SeA+RgKx4wxURNCDTXmigniM37yMhSdT9HJIrkZamwoZEgSCtMZ6hURwVeqUZjCUGMir1JfJMH+m13G0HlDs4EXvEenh0owLEMNtSbecEw2z5RK9ghsKBAwFnSdNMi+BBjiuyldMPTh29Sq84Kajn5RpFqSbthl4jr6eUPNxC5O6cK9P9HMt4YMYMiekIZ/CYfhLl3chRjq2IFIt6AJ08XfTYghcm3aIxyGwXWLKWQcahrOkHCisVa7h+iCDBluqiGM98GlDQfSSX3DN5Qh0QbNRnC0ewbQMPTDxQfKEHwQJhu7HDxDBTYM9SnKkGrNxsN7CMBOqum4XcVnkmBh8UiyfwNqiFu3kaxK7VL0ZhjMzzfEvUARnMYYs8/ovA9tQl8RI9jK+fXXMnjpM3bhpgMW1EyModCSxkqHYfCZV04WjIBF+29QIR9ruKk3Uy/dpGBV+/p3oNhQH96EuN2oNqaXWvZs7T9tT8Ip+wDyVpG3ocHXY1mXW1MJ5mRo8Zq8ghb9VIK4zai0hkZd3s1d9zHFGMzL0K5Jq2XR6TP4LCpgmG4u5eXznwhjWE3tl4ehLUWw435UNYQf0jDNmiZ5R93HGX40+tcpeGxqJjMxeljDFOtSy0uMQXfQ3TxtOnBuW0PU+RPcMF4p4uq2i26LfA3Bm4nxq/O3d6iRJGiIWkTVoIbRIh2dLoEf8t0CvOVtRObR97y75w6UIbTgAw9fC9ItJiWCe8cHHsxEKmGQCSL3aV5ghnawuflEJYjdawPu6gedFLr1l4Uh7vAJlqcQFhUC7t5mgYlMUQQl7QXBcEjWR/G5CqAaT8ZuGF7TNaHGcIJX/0GmGr7dIesQNiE6VQE01ezWpPDd2wwMscnQrTrAcLdkS7G5KR3zFmkIymGf/dRvJgwVIrl7kFVN/ceQciYVuHcB2YzaGt4StqFIciLgCHFrCMyZyASRVG9AN90a9gkNBbIvr3rnu+nWsEq4ZBsIGAKyFQpgKHQMdD7okxuiw/2WswkZ5IZCiew+7XONSG0o2oTnRyK5ofBhbOtM0gmxIUMvSUPO3CqhNZRzi3R+MuzTGt7JuZZ/8hWD1FD0at4O51SVTkpDwWtrEe7XxxUJDeUJnvwGGTJDXXPlCfqMj9XFoDJkFdm1P3rLw7VbaAxNTUIc3KNdrnMjaWkRGOrsTuiF6QTO5F/NM2JFhuzUhilP95OYTK/iMvPBtBJcpTNsVtBcd7uV6Yebrd5RoIZi95IpUYbKsPgow4Du+y0Ql9opDthQN4Ew3F2mzJC/pkFffc0IZagMlSE9yhBglMiDvjBDnWmVakWPJgNclqH5+PNS+9QM0wEuypCF50fVQPGSDGN184L0uIsyjH5QkHp0QYYJlV1WxwUZJo5X3lgxDQUShBO5FJ2CGgrkz16+YaKXDgtqKJD1lchpmhZ0phkI5CbexT6pqPEQVJPrWCNGd2SCSVkkpzITANX/jsLCfjoN/lJiCXkZIJTJzio/qVvudfgpMs+wpQAqjncUnXWnjf5j7O4itdEegtcRkleBCzcMfZpSNzIklCKXjsh0ugfD1SfLGIn3D82CHuDcylLE11zNmjc5F51NSd9bkQWdtGVXDsGkfGtFZjRE7+ObWsbJJMJ0MNVXQr8ixsE93CrD9VXd98vi27gyoNNosrTFSnSTdQsZBI/hNrom2HKTy3U9+CXNF8F5mnZ1Zponas98J6qxu+vBsICLNCDu06Bfafoa7CcBYeO0TUVgTOtWpx/D39d2h3Dc4dvTe6PRmE6n/s/bp7c39zLMFAqFQqFQKBQKhUKhUCgUCoVCURT+ByL263sjSyqCAAAAAElFTkSuQmCC;" vertex="1" parent="8N-V9I-CrBm6m9oQKu6N-74">
          <mxGeometry x="10" y="10" width="40" height="40" as="geometry" />
        </mxCell>
        <mxCell id="8N-V9I-CrBm6m9oQKu6N-86" value="" style="group" vertex="1" connectable="0" parent="1">
          <mxGeometry x="810" y="540" width="185" height="60" as="geometry" />
        </mxCell>
        <mxCell id="8N-V9I-CrBm6m9oQKu6N-87" value="" style="strokeColor=#dddddd;shadow=1;strokeWidth=1;rounded=1;absoluteArcSize=1;arcSize=2;container=0;" vertex="1" parent="8N-V9I-CrBm6m9oQKu6N-86">
          <mxGeometry width="185" height="60" as="geometry" />
        </mxCell>
        <mxCell id="8N-V9I-CrBm6m9oQKu6N-88" value="Process Streams" style="text;align=center;verticalAlign=middle;resizable=0;points=[];autosize=1;strokeColor=none;fillColor=none;html=1;" vertex="1" parent="8N-V9I-CrBm6m9oQKu6N-86">
          <mxGeometry x="55" y="10" width="110" height="30" as="geometry" />
        </mxCell>
        <mxCell id="8N-V9I-CrBm6m9oQKu6N-89" value="Procedure" style="text;html=1;align=center;verticalAlign=middle;resizable=0;points=[];autosize=1;strokeColor=none;fillColor=none;textOpacity=50;" vertex="1" parent="8N-V9I-CrBm6m9oQKu6N-86">
          <mxGeometry x="70" y="30" width="80" height="30" as="geometry" />
        </mxCell>
        <mxCell id="8N-V9I-CrBm6m9oQKu6N-85" value="" style="shape=image;verticalLabelPosition=bottom;labelBackgroundColor=default;verticalAlign=top;aspect=fixed;imageAspect=0;image=data:image/png,iVBORw0KGgoAAAANSUhEUgAAAOEAAADhCAMAAAAJbSJIAAAA21BMVEX///8mh88Acsa41DJ/ugAAcMUhhc5GlNM0g8wdgMwAfswAaMNYntjb6vYAbsUAa8Rrp9sAZcKVvuT2+v240eu00hm20yd2tgDt9PqexOZ4qtvS4vPt9NiTwxery+nj7vjH2+/h7biw0Czz+OnI4KSDtOA0jtJgmtXg7LTr89TL4H7y9+K61kPo8cy/2FOy0AnD22PQ44qfyCCt0XaKuOFKl9Xn8MXK33nU5Zf6/fXg7bjG3W/C2l7a6KMYecmYxRuJvyfA25akzWSbyFC11YOjzV6Rw0DY6MHF3pyikQA7AAALwUlEQVR4nO3d/1+azh8AcKEBAgIiaKANqQRbVq6mba3Namvb+///iz6cpHLc8UUF7/o87vVTD4Pk2evgvnh3NhosWLBgwYIFi4PEw/nkJIrr+++nUdxfnyxjck76uvaLh4fr04vbr19vutPptLuKXq+biOg3vavHy9uL0+vzB9IXXD4ePl18+3xz1Z0CT693VBTgIMA9uvr67fQT3dCHk4vLx0hWxoW3RmntPV5eTGh0Tr7fXvV2tqVy2u1d3Z7SdJdOLh4Bbm8b5OxOj75eTEjTQHy6Papat1b2uke3n8jyri+j5NWiWyu7vct7UryT27p5a+Q3Ejfl/Y/pIXhvyOnj9aF9VwdJX8LYvTpkYf100z0oL47uzcGeOpdTAr4jUFYvD+KbHB22fELGowPUkNckCugmurU/ca4JldB1TGu+Gc/JZhBEt95m+Wdy9+Aqeo91AiekyyiIaZ0NnJ/kUxgl8aJG4SUVwjprxVsqhLc1Cu/JP0qjh+lpdSAHeYWKHJa4zrIxQF75ST6J3Z/IVWk7C130pR/bZvHs7Ozu7u7p6WMqnp6il++i355t9/d6P9CL8nYWhpjXbkoRI1Zk+lA2Pj4BbCngDeaaWjsLF2gxjbKYX1DP7raQIdKPd/nO7mfMFQ1wmSgXMvbUbxkNG5C2D8c761ZxDDKKd/Yw92AULWlnYdO0cS+fXCFpPHvaPXH4+PiEKLs32N6hr+whFHT8g/ii103qKsZtIqnsZrTWLFHcS8hl/OriKB6KOqs6d+n4eBeXz6us1qi0n5A3Ms++/zHt1s1bIac/MgfaWjK3nzCH2DgfPR/v/2QpiuPj51F2fykC7ivkDc7KPmLyUi8y4r3kDD5Z8wi4t5DX+WHeQeejXx9qUUZ/9Nf33N6uxolcFUJeUDsFB05Gf46PK2SCv/VrdFLwrq6yBFYg5Hm1mZvGWPnv5feH/ZngL/x+/V48LjpcltCqhFEaZ6XOePg3+vJ8fLxLQpfnPH8ZXZcbS5u9JbAqYfTA4cu34B8m/0avf/5+OF5FDir+9d/fX0bfT8oPMXniKoHVCaM0ylv3Uh5Orv+NXl5fv/z5+/f5OWF7fv77+9fr68t/o3/XJ1sPgHrhJoEVCoFx0cmpOQ4VHgf5qhRGRsPoFz9z6oxhIMqwr1phZNRNCdvhOEjYLUVM+6oWLgur3sd1jeuOQSArKK8OIUikyrf96q69RPgBh0tfXcIYqY69w9yTjt1WMnm1CUHohrro+/U+XS0/CBXk2XIoYZxKs9m3dx+wzIuhHUiRLp9Xt3BVYHlpVilTszstrozuIMKlUjBU02iOO7a2X6m1NNvtt0RFLqk7mHCVTUNVDT7sd+zBtp8lOJrvzdqhqJTNHBHhKp8AahqLptQOOp7tD7Th0EFSaznOUPNtz531W/NQVpa0LW2EhBtpRDUibBzRj7rAiyEITgYiEDIojjvKiAtxZEHm9gZRLARIufiCmZAJmZAJmZAJmZAJmZAJmZAJmZAJmZAJmZAJmZAJmZAJmZAJmZAJmZAJmZAJmZAJmZAJ360wnuK1mvWkCwVnCIq4ng1V2byhGoWCrgpc3/UHmqYNBr43G8uGqmeeJBiqMJ958eG+F8zF7Jm/YjJICcHShEF6Qp7l93kde7huLjpa+mDM2oL4olsNax0DhYxQ17NWtLUxRF0d4+f3eyHOKCaX2GtkhGY7c6psHxEK5jx7BrGHIZIXCmrOshJEqPN+3ttYbYRAXCioeUtK0kJVKpoZ7aYNxIWmn3daSqj2i9/JTy/WIiw08pdbwsIywEYj9bwkLBQW+adBQqNd7r1siEFYiDxlLN+3/U3VmBTqzbJvNks26MgKBR0+ym6ay0abuRh7TkqI2VjDGnie6/noagUpcSuSFerwjTU2hTXHMEMfEiLpHrSW8/OjximyjHGYgJAVwlfdVuEEm6ETrIVCaoMbS1psVmArUmrpW6KcEhYmmyeOmv61oMrr01LV5sAwoJtN8WE/LUIjeQv5iDAyrn+A31ozBbh/KCrwf2C2STBJoaAnWyg44TrghoEVdR5TPWBRhFo7mzuRIiFaShNHwvWmpKN9fBGuLVurJFJUSvP6H3DTxzd5zCiGAvU5vPVWF2SfNNDNo5mZROiR1AgFnBBOorOyEM4hvHmEb+D79LwgJA8bmjxOyCnQnciJNAj1MXyUE6oljpsZGUKodu1TIeTNdHfP5nFGw0X/FioUg+RRrkyF0AiQI+0FaoTuV8vgM4RQs8dXqBAKBmaRr4cYzeRRmpoh5KAqUaNDyOvY/RS9hQH9H4TkpduZQiX5j3AoEWb124NkGuH63s0qpXCNaNEi5FX0VgQxbG6aOALU9+1kC/2kkI5naU4WG7NNb3E3oUiLkFdD/J4C/or43nMIRvXxG2MNDAEjzLkPISE19+HyatUmdlx42cQGmOSLXrknDTXP0pXRDHHGuETCz1K/XG0xoEwI8giGntKxWJ5nJOvDYZZQFKF/BHVCkEcOyWNcJOHOE5/VLp0nj6KkXYoYx6nHqrVMGDwmN9bxQhn6FLJN07M0EbruwydKy61doSozbrZhek9QCRApFUZphGuOZWcQfpg2dHwfH2riDuno42PDhMdb4hsRKryBgRMq0L/GpWOcBl9QoQ59XDfAXeAGmImCjLXBu2nP6Rhrw861gPtKsRBu1TRsExXCo96UjJdG6cKNWaiY3qAJ1yN9NS1U4OkcAR1j3lE95+vobAuoBfPWRkuPWY1VHhIqcB/M2UiIj5da4/QoKTx2M3vr7aeS2OiYyU/QlFTTfZNC8kLwnRKqkdxlGK4ZJGwPClxsS4n39hIVpZ9qJyQhsHAhI1HPLrtJYfS+/YWpgrl64INRuD9srXv6KvJFLo4XtOat9sxGZqBkfgbszDpItMT6hQ2wdeNsHHLzvpfKhrcekhLU0huAZn+OjwtXPoiwxHlF8zbWkTMXAxdkhV7yE7fMb8iAAwZSLhzC1aVR5ntu/NTjkmqhw6crkmbhPphe7rw2XBAUDtNA8Kmxn/s2RXMTcVGvMG+zWdvAnIP2kaGLxexhTVaoZ1+ulvFRIq8bM/wMTMvjcNP3yQp5sC075notW8r+xFswVNw251Z6j3w6hKAiN6SOn6jMHd8dGxn5W50Dtjn30iXcCvHCsJ0f8zrbNPH1LrdGXjRDaTyXmvyy/ZbnWyEXcjiHGumWhF1kIhYFV7dw5XyLQtzqBLAHbarT1Np3HQ2Fq4IUuD2OVhbvXpiagNEI9iPSKOTSU/b2IlIpFOHZXuhyhHcvjJ43cLMBaZm+e2FU48GNhvSKi/cvRK5rUPAtFu9PyMmplpm2K5FaISen5nM43G5EeoWcklpdlNFIfcdCTunYUHj/d0JOTA307gKkW1hJMCETMiETMiETMiETMiETMiETMiETMiETMiElwnkxJSOkdyIsmtaQHTOj+JopEMpZW+MVR+62HvQIlcLJktlRfgoCQSG8NmzL6FSdxDqEMjIPeZtAp+FRJxTLTWDNirf1oDQL97kLQQTVltPqhelP6LaPcaU1RuVCueSWfnkhVUmsWlgFcLmWh1ahUmrXyeKYZU8bJSoUlb3qiWTYasZGSUSFouxXBQSTQPNnxxIQikqraGfb7cIWKnngVCaUxZyNjHeMoIqiWpFQ3KM7kRPOeH9jJUIRWdhXWQz7Km45xUGFoqwEdflAWB3Mpl4HFIoK51b7gMGEHZq7J3IvYZS+ll83bxlOp7lrad1dGPEkt87imYphR94pkzsKI17oll6NWh0yzPsyi8qEYsSbH54Xh2X3+VKLZXYWRjou8Gt/tuTG0GvLZnRblmOWF4LUKWHfPuCtlxOOPZN4Qy3+mplywggnK2LbJZw7JJyB2w/BEq88aK4QLNgC37Mj9V2f0H1XIpyBF4xlIf7moOgOFQqFy5VoYJN2RQxbM29Arw0KR7O9oD0OF4Zpmm9flbQMJTErOP5WJDGct4OO7WsOZYWydFhDbeD7tud2OrPZav8H1/Vs2x9ow/eqoin+BzW4k/xaXG4qAAAAAElFTkSuQmCC;" vertex="1" parent="8N-V9I-CrBm6m9oQKu6N-86">
          <mxGeometry x="10" y="10" width="40" height="40" as="geometry" />
        </mxCell>
        <mxCell id="8N-V9I-CrBm6m9oQKu6N-92" value="" style="edgeStyle=orthogonalEdgeStyle;fontSize=12;html=1;endArrow=blockThin;endFill=1;rounded=0;strokeWidth=2;endSize=4;startSize=4;dashed=0;strokeColor=#4284F3;entryX=0.5;entryY=0;entryDx=0;entryDy=0;" edge="1" parent="1" source="8N-V9I-CrBm6m9oQKu6N-15" target="8N-V9I-CrBm6m9oQKu6N-75">
          <mxGeometry width="100" relative="1" as="geometry">
            <mxPoint x="990" y="444" as="sourcePoint" />
            <mxPoint x="1180" y="524" as="targetPoint" />
            <Array as="points">
              <mxPoint x="1010" y="510" />
              <mxPoint x="1113" y="510" />
            </Array>
          </mxGeometry>
        </mxCell>
        <mxCell id="8N-V9I-CrBm6m9oQKu6N-93" style="edgeStyle=orthogonalEdgeStyle;rounded=0;elbow=vertical;html=1;labelBackgroundColor=none;startFill=1;startSize=4;endArrow=blockThin;endFill=1;endSize=4;jettySize=auto;orthogonalLoop=1;strokeColor=#4284F3;strokeWidth=2;fontSize=12;fontColor=#000000;align=left;dashed=0;" edge="1" parent="1">
          <mxGeometry relative="1" as="geometry">
            <Array as="points">
              <mxPoint x="915" y="510" />
            </Array>
            <mxPoint x="1010" y="510" as="sourcePoint" />
            <mxPoint x="915" y="539" as="targetPoint" />
          </mxGeometry>
        </mxCell>
        <mxCell id="8N-V9I-CrBm6m9oQKu6N-139" value="" style="group" vertex="1" connectable="0" parent="1">
          <mxGeometry x="560" y="637" width="210" height="190" as="geometry" />
        </mxCell>
        <mxCell id="8N-V9I-CrBm6m9oQKu6N-102" value="" style="rounded=1;whiteSpace=wrap;html=1;fillColor=#f5f5f5;fontColor=#333333;strokeColor=#666666;container=0;" vertex="1" parent="8N-V9I-CrBm6m9oQKu6N-139">
          <mxGeometry width="210" height="190" as="geometry" />
        </mxCell>
        <mxCell id="8N-V9I-CrBm6m9oQKu6N-108" value="RAW SCHEMA" style="text;html=1;align=center;verticalAlign=middle;resizable=0;points=[];autosize=1;strokeColor=none;fillColor=none;textOpacity=50;container=0;" vertex="1" parent="8N-V9I-CrBm6m9oQKu6N-139">
          <mxGeometry x="50.00297297297311" y="10" width="110" height="30" as="geometry" />
        </mxCell>
        <mxCell id="8N-V9I-CrBm6m9oQKu6N-96" value="" style="strokeColor=#dddddd;shadow=1;strokeWidth=1;rounded=1;absoluteArcSize=1;arcSize=2;container=0;" vertex="1" parent="8N-V9I-CrBm6m9oQKu6N-139">
          <mxGeometry x="16.25" y="40" width="177.5" height="60" as="geometry" />
        </mxCell>
        <mxCell id="8N-V9I-CrBm6m9oQKu6N-97" value="FRED Stream" style="text;align=center;verticalAlign=middle;resizable=0;points=[];autosize=1;strokeColor=none;fillColor=none;html=1;container=0;" vertex="1" parent="8N-V9I-CrBm6m9oQKu6N-139">
          <mxGeometry x="72.5" y="50" width="100" height="30" as="geometry" />
        </mxCell>
        <mxCell id="8N-V9I-CrBm6m9oQKu6N-98" value="Stream" style="text;html=1;align=center;verticalAlign=middle;resizable=0;points=[];autosize=1;strokeColor=none;fillColor=none;textOpacity=50;container=0;" vertex="1" parent="8N-V9I-CrBm6m9oQKu6N-139">
          <mxGeometry x="92.5" y="70" width="60" height="30" as="geometry" />
        </mxCell>
        <mxCell id="8N-V9I-CrBm6m9oQKu6N-100" value="" style="image;sketch=0;aspect=fixed;html=1;points=[];align=center;fontSize=12;image=img/lib/mscae/Stream_Analytics.svg;container=0;" vertex="1" parent="8N-V9I-CrBm6m9oQKu6N-139">
          <mxGeometry x="22.5" y="50.5" width="50" height="39" as="geometry" />
        </mxCell>
        <mxCell id="8N-V9I-CrBm6m9oQKu6N-113" value="" style="group" vertex="1" connectable="0" parent="8N-V9I-CrBm6m9oQKu6N-139">
          <mxGeometry x="15" y="110" width="180" height="60" as="geometry" />
        </mxCell>
        <mxCell id="8N-V9I-CrBm6m9oQKu6N-114" value="" style="strokeColor=#dddddd;shadow=1;strokeWidth=1;rounded=1;absoluteArcSize=1;arcSize=2;container=0;" vertex="1" parent="8N-V9I-CrBm6m9oQKu6N-113">
          <mxGeometry width="180" height="60" as="geometry" />
        </mxCell>
        <mxCell id="8N-V9I-CrBm6m9oQKu6N-115" value="&lt;div style=&quot;line-height: 150%;&quot;&gt;RAW DATA&lt;/div&gt;" style="text;align=center;verticalAlign=middle;resizable=0;points=[];autosize=1;strokeColor=none;fillColor=none;html=1;" vertex="1" parent="8N-V9I-CrBm6m9oQKu6N-113">
          <mxGeometry x="60.8108108108108" y="10" width="80" height="30" as="geometry" />
        </mxCell>
        <mxCell id="8N-V9I-CrBm6m9oQKu6N-116" value="TABLE" style="text;html=1;align=center;verticalAlign=middle;resizable=0;points=[];autosize=1;strokeColor=none;fillColor=none;textOpacity=50;" vertex="1" parent="8N-V9I-CrBm6m9oQKu6N-113">
          <mxGeometry x="70.28449502133711" y="30" width="60" height="30" as="geometry" />
        </mxCell>
        <mxCell id="8N-V9I-CrBm6m9oQKu6N-119" value="" style="verticalLabelPosition=bottom;html=1;verticalAlign=top;align=center;strokeColor=none;fillColor=#00BEF2;shape=mxgraph.azure.storage;pointerEvents=1;" vertex="1" parent="8N-V9I-CrBm6m9oQKu6N-113">
          <mxGeometry x="18.94736842105263" y="10" width="37.89473684210526" height="40" as="geometry" />
        </mxCell>
        <mxCell id="8N-V9I-CrBm6m9oQKu6N-140" value="" style="group" vertex="1" connectable="0" parent="1">
          <mxGeometry x="840" y="680" width="210" height="120" as="geometry" />
        </mxCell>
        <mxCell id="8N-V9I-CrBm6m9oQKu6N-120" value="" style="rounded=1;whiteSpace=wrap;html=1;fillColor=#f5f5f5;fontColor=#333333;strokeColor=#666666;container=0;" vertex="1" parent="8N-V9I-CrBm6m9oQKu6N-140">
          <mxGeometry width="210" height="120" as="geometry" />
        </mxCell>
        <mxCell id="8N-V9I-CrBm6m9oQKu6N-121" value="HARMONIZED SCHEMA" style="text;html=1;align=center;verticalAlign=middle;resizable=0;points=[];autosize=1;strokeColor=none;fillColor=none;textOpacity=50;container=0;" vertex="1" parent="8N-V9I-CrBm6m9oQKu6N-140">
          <mxGeometry x="25.00297297297311" y="10" width="160" height="30" as="geometry" />
        </mxCell>
        <mxCell id="8N-V9I-CrBm6m9oQKu6N-127" value="" style="group" vertex="1" connectable="0" parent="8N-V9I-CrBm6m9oQKu6N-140">
          <mxGeometry x="13.75" y="40" width="180" height="60" as="geometry" />
        </mxCell>
        <mxCell id="8N-V9I-CrBm6m9oQKu6N-128" value="" style="strokeColor=#dddddd;shadow=1;strokeWidth=1;rounded=1;absoluteArcSize=1;arcSize=2;container=0;" vertex="1" parent="8N-V9I-CrBm6m9oQKu6N-127">
          <mxGeometry width="180" height="60" as="geometry" />
        </mxCell>
        <mxCell id="8N-V9I-CrBm6m9oQKu6N-129" value="&lt;div style=&quot;line-height: 150%;&quot;&gt;CLEAN DATA&lt;/div&gt;" style="text;align=center;verticalAlign=middle;resizable=0;points=[];autosize=1;strokeColor=none;fillColor=none;html=1;" vertex="1" parent="8N-V9I-CrBm6m9oQKu6N-127">
          <mxGeometry x="56.8408108108108" y="10" width="100" height="30" as="geometry" />
        </mxCell>
        <mxCell id="8N-V9I-CrBm6m9oQKu6N-130" value="TABLE" style="text;html=1;align=center;verticalAlign=middle;resizable=0;points=[];autosize=1;strokeColor=none;fillColor=none;textOpacity=50;" vertex="1" parent="8N-V9I-CrBm6m9oQKu6N-127">
          <mxGeometry x="70.28449502133711" y="30" width="60" height="30" as="geometry" />
        </mxCell>
        <mxCell id="8N-V9I-CrBm6m9oQKu6N-131" value="" style="verticalLabelPosition=bottom;html=1;verticalAlign=top;align=center;strokeColor=none;fillColor=#00BEF2;shape=mxgraph.azure.storage;pointerEvents=1;" vertex="1" parent="8N-V9I-CrBm6m9oQKu6N-127">
          <mxGeometry x="18.94736842105263" y="10" width="37.89473684210526" height="40" as="geometry" />
        </mxCell>
        <mxCell id="8N-V9I-CrBm6m9oQKu6N-141" value="" style="group" vertex="1" connectable="0" parent="1">
          <mxGeometry x="1100" y="680" width="210" height="120" as="geometry" />
        </mxCell>
        <mxCell id="8N-V9I-CrBm6m9oQKu6N-132" value="" style="rounded=1;whiteSpace=wrap;html=1;fillColor=#f5f5f5;fontColor=#333333;strokeColor=#666666;container=0;" vertex="1" parent="8N-V9I-CrBm6m9oQKu6N-141">
          <mxGeometry width="210" height="120" as="geometry" />
        </mxCell>
        <mxCell id="8N-V9I-CrBm6m9oQKu6N-133" value="ANALYTICS SCHEMA" style="text;html=1;align=center;verticalAlign=middle;resizable=0;points=[];autosize=1;strokeColor=none;fillColor=none;textOpacity=50;container=0;" vertex="1" parent="8N-V9I-CrBm6m9oQKu6N-141">
          <mxGeometry x="35.00297297297311" y="10" width="140" height="30" as="geometry" />
        </mxCell>
        <mxCell id="8N-V9I-CrBm6m9oQKu6N-134" value="" style="group" vertex="1" connectable="0" parent="8N-V9I-CrBm6m9oQKu6N-141">
          <mxGeometry x="13.75" y="40" width="180" height="60" as="geometry" />
        </mxCell>
        <mxCell id="8N-V9I-CrBm6m9oQKu6N-135" value="" style="strokeColor=#dddddd;shadow=1;strokeWidth=1;rounded=1;absoluteArcSize=1;arcSize=2;container=0;" vertex="1" parent="8N-V9I-CrBm6m9oQKu6N-134">
          <mxGeometry width="180" height="60" as="geometry" />
        </mxCell>
        <mxCell id="8N-V9I-CrBm6m9oQKu6N-136" value="&lt;div style=&quot;line-height: 150%;&quot;&gt;BI DATA&lt;/div&gt;" style="text;align=center;verticalAlign=middle;resizable=0;points=[];autosize=1;strokeColor=none;fillColor=none;html=1;" vertex="1" parent="8N-V9I-CrBm6m9oQKu6N-134">
          <mxGeometry x="65.2808108108108" y="10" width="70" height="30" as="geometry" />
        </mxCell>
        <mxCell id="8N-V9I-CrBm6m9oQKu6N-137" value="MAT VIEW" style="text;html=1;align=center;verticalAlign=middle;resizable=0;points=[];autosize=1;strokeColor=none;fillColor=none;textOpacity=50;" vertex="1" parent="8N-V9I-CrBm6m9oQKu6N-134">
          <mxGeometry x="60.28449502133711" y="30" width="80" height="30" as="geometry" />
        </mxCell>
        <mxCell id="8N-V9I-CrBm6m9oQKu6N-138" value="" style="verticalLabelPosition=bottom;html=1;verticalAlign=top;align=center;strokeColor=none;fillColor=#00BEF2;shape=mxgraph.azure.storage;pointerEvents=1;" vertex="1" parent="8N-V9I-CrBm6m9oQKu6N-134">
          <mxGeometry x="18.94736842105263" y="10" width="37.89473684210526" height="40" as="geometry" />
        </mxCell>
        <mxCell id="8N-V9I-CrBm6m9oQKu6N-150" value="" style="shape=image;verticalLabelPosition=bottom;labelBackgroundColor=default;verticalAlign=top;aspect=fixed;imageAspect=0;image=data:image/png,iVBORw0KGgoAAAANSUhEUgAAAgAAAAIACAYAAAD0eNT6AAAABHNCSVQICAgIfAhkiAAAAAlwSFlzAAAOxAAADsQBlSsOGwAAABl0RVh0U29mdHdhcmUAd3d3Lmlua3NjYXBlLm9yZ5vuPBoAACAASURBVHic7d15gFx1ma/x71vVnUDClhAYVC7uMwNERyEgS1RCujsBAUm6ijXRuBBZFERUYNza6zKgo1fADa6jLCIk1d1BYCDd1aFFE3AJe3AXruO+kICA2brrvX/QSBKy9HKq3qpzns/fUPUokPPt36k+ZQKQiGK/7+IDOtNM89x1oKS1ZvqOmy7pnGl3RfcBwKYsOgBodMXFPq4yWWea60OS9t7KX1Ix0wdKLfb5WrcBwLYwAIBRKi72fGWy5pnr45JevIO/3GU6obPFbq1FGwDsSC46AGg47tbe5yf6JD1orqu144u/JJm7PlPlMgAYNk4AgBEo9vjRntOnJb1uNH+/5zW162h7OOEsABixpugAoBG09/o0kz7tptaxvI5V9FJJDAAA4RgAwHaccru/ZKBZn5GroAROzMz1eAJZADBmDABgK+b3+MS1OV00IL1frp0Setm/TmzSyoReCwDGhAEAbMrdin06da3rUkn7JvvS+sjVM2xdkq8JAKPFhwCBIUP3+S+T6YjEX9z1ic42+2jirwsAo8QAQObN6fM98xV9VKZzJOUTfvmnzPTOUostSvh1AWBMGADIrIUrvXnNap3tpo9L2j3p13fp55WK2pfMslVJvzYAjBUDAJlU7PPWiuuLJv1zVd7AVNqwk95x83R7siqvDwBjxABAppx2q09aP16XmHSGqvPv/4BcH+5s1Wdk5lV4fQBIBAMAmVHo9aJMX5K0V5Xe4s9W0amlWXZHlV4fABLDAEDqtff5y8z1FUltVXyb71UGdXL3bPtDFd8DABLDAEBqLVzpzWvW6AKXPipp52q9j7s+/1izLvzODBuo1nsAQNIYAEil9rK/1qSrJE2r4tsMuOs9XW321Sq+BwBUBU8CRKoU+30X36hPSXq3qvt114+Zq72zze6s4nsAQNVwAoDUmFv2w0y6pmq/2vecX3pFx3fNsp9W+X0AoGo4AUDDW7jSm1ev0YckfVjJP8lvMyat0EbN6TzW/lLN9wGAauMEAA2t/Q4/MDeoa106qAZv93Vbo7NKJ9mGGrwXAFQVAwCNyd2KZZ3rpkslja/2u0n6352t1lHl9wGAmmEAoOEUe/ylyutqd72hBm/3tJvmdbXYTTV4LwCoGQYAGsrQ0/yukrRH1d/MtKZS0fHdbbai6u8FADXGAEBDKC71ycrrv1w6sUZv+fvBimbxTX4A0orfAkDda+/1aW5aJOllNXrLR21QbUtm2y9r9H4AUHPVfFAKMDbuVuz188y0QjW6+Ju0qsk1vcTFH0DKcQsAdalY9t3d9TWZCrV6TzN9V64TSq32RK3eEwCicAsAdWdunx/irkUyvbSGb3urJuik0hG2tobvCQBhuAWA+jF05J9zLZdqePE3fXPyJM3l4g8gS7gFgLpQXOqTPa9rJB1X47f+ameLzpaZ1/h9ASAUAwDh5i7zg3IVLZG0Xy3f16Wrulp0Jhd/AFnELQCEai/7SbmKvqcaX/wlff1VK3QWF38AWcUAQAx3K/T6hSbdKGlCjd/9G1NX6IyODqvU+H0BoG5wCwA1d8Jy33X8Wl1bw6f6/YObrn7Vcr2Diz+ArGMAoKaKS/0VntNNMh1Y8zd33WiPa17pJBus+XsDQJ1hAKBmCr3eppxulGtSrd/bpUWPNWned2bYQK3fGwDqEZ8BQE0Uev0CmW6LuPjLdWNujU7n4g8Az+EEAFW1cKU3P/a4rjLXgqCEXluj40sn2Yag9weAusQAQNUU+30X36jFMh0TlLDSmjSjNMOeCnp/AKhbDABUxdyl/oJ8Xre6dFBQwi+bTdNvaLE/Bb0/ANS1fHQA0qfY5weYqV/S/kEJv28a0FE3zrLfBb0/ANQ9PgSIRBX7/HB33SnpxUEJT5jrTTceY/8v6P0BoCEwAJCYQtnnumuZpClBCWtlOr7UZvcHvT8ANAwGABLRXvbzJZUk7RyUMGiuUzpb7HtB7w8ADaUpOgANzt0KffqcpPNDM0zv62y1myMbAKCR8FsAGLXiYs/7JF0l6e3BKd/obLXoBgBoKJwAYFSGLv5fl/SW4JTltkZnBjcAQMPhBAAjVlzs43ySbpA0N7LDTf8vt0GHlo61v0R2AEAj4gQAI3LMbT7em7VY0gnBKU/mXCdw8QeA0WEAYNiOv8Un7NSsb7vUEpxSMde8Ups9FNwBAA2LAYBhKfb7LhrQzS7NiG6R6eISn/gHgDHhMwDYoeJSn6y8lrp0SHSLpOs7W21edAQANDpOALBdc/p8T0nL3PVv0S2SfrxzRe+KjgCANODLgLBNp9/mu3lOvYHf6LepdYODOmbRbPtNdAgApAGPAsZWHX+LT9gwTrfUybG/zHXWktn2QHQHAKQFtwDwPMXFPs53Upe73hDdMuQbpTa7OjoCANKEEwBsZuFKb/ZJ6pI0O7pFkuR6eP06vTs6AwDShs8A4B+Kiz3/d+mbFvyEv008bTm1LTnGfh8dAgBpwwkAJEkdHZ7zybrapJOjWzZxdqnFfhwdAQBpxAkAJHebMqir5FoQnbKJaztb7ePREQCQVpwAQIVl+qxc74zueJZLvzHp3OgOAEgzBkDGFct+llwXRHdswnOmhaVWeyI6BADSjAGQYcVeP8GlK6I7NmP6cqnFlkZnAEDaMQAyqrjMD3XTDaqvz4E8YnldFB0BAFnAg4AyqLjUX+EV3SppQnTLJiqVit7WPcOeig4BgCzgBCBjirf5Xp7X7ZL2im7ZjOmz3bPsu9EZAJAVDIAMmd/jE71Zt0l6RXTLpkxa9fQGfSy6AwCyhAGQEcXFnl+b0/WSpkW3bKEi08Lbj7X10SEAkCUMgIyoTNIVkt4c3bEll75WarG7ozsAIGsYABlQ7PUFJp0V3bEVfx3XpA9FRwBAFjEAUq6wzI9w01ejO7bGXO+7YYb9NboDALLIogNQPaf0+gsHTD+S9MLoli2Z6bulmTpKZh7dAgBZxAlASi3o950GTTepDi/+kjbkXGdy8QeAODwIKKWeGtCXJR0S3bENn1nUaj+JjgCALOMEIIWKff4+SW+L7tiGR2yiPh0dAQBZxwBImfY+b3HXpdEd22KmC0tH2NroDgDIOj4EmCLtff4yc/1I0uTolq0x6fulFh3BvX8AiMcJQEosXOnNOdf1qtOL/5APcPEHgPrAhwBTYvUafUbSYdEd22JSV6nVlkd3AACewQlACrT3+rGSzovu2I6NFdfF0REAgOcwABrc3H7f10zXqL4/z/HVrjb7RXQEAOA5DIAGdlS/N+UGdIOkKdEt2/Fks+lT0REAgM0xABrYlEF9XNL06I7tcl1yQ4v9KToDALA5BkCDmtvnM+S6MLpjBx7bMEFXREcAAJ6PAdCA5vT43kO/8pePbtkek/7PzdPtyegOAMDzMQAajbs15XStpBdEp+zA45K+GB0BANg6BkCDaS/rXS7Niu4YhstKrfZEdAQAYOsYAA3klNv9JWb6THTHMPxt3HpdFh0BANg2BkCD6Ojw3ECTviFp1+iWHXHpim8dZ2uiOwAA28YAaBAPHanzJB0V3TEMT+c28tM/ANQ7BkADKN7h/2JqmIfpfKV0rP0lOgIAsH0MgDrX0eE5H9TXJO0c3TIMg1bRl6MjAAA7xgCoc6uO0EWq96f9Pcu1pDTLHo3OAADsGAOgjhXL/iqZPhrdMVwV56l/ANAoGAB1qqPDcy5dKWl8dMsw3d89y74bHQEAGB4GQJ1aNV1nSDo8umMELo8OAAAMHwOgDp3a71Pk+mR0xwj8ZZcm3RAdAQAYPgZAHdowoM9LmhLdMQJXXj3D1kVHAACGjwFQZ+b2+QyT5kV3jMBgpUlXRkcAAEaGAVBHiot9nLm+JMmiW4bLpJ7uGfbb6A4AwMgwAOqIT9IHTdo/umMkKtI10Q0AgJFjANSJucv8xZIuiu4YEdOaXZt0c3QGAGDkGAB1Iv/MI3QnRneMiOsGPvwHAI2JAVAH2nv9WJeOje4YqYrp6ugGAMDoNMyHzdKquNjzmqT7XZoa3TJCP+5stQOjIwAAo8MJQLDKHjqjAS/+MvHTPwA0MgZAoNNv893M1BHdMQqVwUF9MzoCADB6DIBA65p1saR/iu4YhRXds+0P0REAgNFjAASZ2+/7mnRudMcodUcHAADGhgEQxAZ0qaQJ0R2jYRV9O7oBADA2/BZAgOIyP9Qr+r4a8///lZ2tdkh0BABgbDgBCOAV/aca8+IvuZZEJwAAxo4BUGPtZZ8l6fXRHaPlzv1/AEgDBkCNmfTh6IZRcz3cNct+Gp0BABg7BkANFft8tqTp0R1jwBf/AEBKMABqyL0hH/rzDyb1RDcAAJLBAKiR9l4/VtLrojvG4OmnBvT96AgAQDIYADVi0seiG8bCpDtvP9bWR3cAAJLBAKiBQp8fJ9Oh0R1jUZH6ohsAAMlhANSAuT4a3TBWlYrK0Q0AgOQwAKqsvcePd6nRn5z3hyVtejg6AgCQHAZAlVlOF0c3jJVLfTLz6A4AQHIYAFVU7PPDJR0e3TFWOdcd0Q0AgGQxAKrIXe+PbkhEk+6OTgAAJKsxv5CmARR7/KWe0y8k5aNbxujxzhZN5hYAAKQLJwBV4nldoMa/+EvS97n4A0D6MACqoLjUJ8u1ILojIT+IDgAAJI8BUAXepHMkTYzuSIIZj/8FgDRiACTsmNt8vFxnR3ckxAekH0VHAACSxwBI2MQmzZe0T3RHQn6+pMUei44AACSPAZA003uiExK0MjoAAFAdDIAEDT3459XRHUkxaVV0AwCgOhgACXLXGdENSXJjAABAWjEAElIs++6SToruSJIN8gVAAJBWDIDkzFdKfvVvyNMH3q1fR0cAAKqDAZAQl94R3ZAo18MdHVaJzgAAVAcDIAFDH/57TXRHoozjfwBIMwZAAtL24T9JkjMAACDNGABjNPThv5OjO5Jmpp9GNwAAqocBMEZuOl3ShOiOpA1U+AAgAKQZA2CsXPOiE6phcCIDAADSjAEwBnOX+YslHRbdUQWrb55uT0ZHAACqhwEwBrlBnS7JojuqgJ/+ASDlGABjYKZToxuq5H+iAwAA1cUAGKX2Pn+1S1OjO6rCOQEAgLRjAIyWp/anf1mOAQAAaccAGA13k+mU6Ixqcen30Q0AgOpiAIzC3LKOMNdLojuqxaW/RjcAAKqLATAKuVx6j/8lSa7HohMAANXFABihjg7PyTU3uqOamge0JroBAFBdDIAReuhwHSLpBdEd1TS4E7cAACDtGAAjldPx0QlVtqE0w56KjgAAVBcDYIRMqR8A3P8HgAxgAIxAsez7SXp1dEc1GQMAADKBATACFU/9T/+SxPE/AGQAA2AETHpzdEO1ubQ+ugEAUH0MgGEq9vsuMr0huqMGGAAAkAEMgGHyjTpG0vjojhrYEB0AAKg+BsDwvSk6oEYYAACQAQyA4TK1RCfUCLcAACADGADDULzD/0XSi6I7asI5AQCALGAADENlQDOiG2rGGAAAkAUMgGGwnI6ObgAAIEkMgB1xN7neGJ1RK25qjm4AAFQfA2AH2pfpVZL2ju6oFXMGAABkAQNgB3KVDN3/fwYDAAAygAGwA24ZGwDcAgCATGAAbEdxsecz8vjf53ALAAAygQGwHZVJerVck6I7amxcdAAAoPoYANvjel10QgAGAABkAANgO8x0aHRDgN2jAwAA1ccA2B7P3gBwy9wtDwDIJAbANhT7fReZ/jW6o9Yse595AIBMYgBsgw9omqR8dEeA3YqLPYv/uwEgUxgA22DSIdENQUy78TkAAEg7BsA2uGV2ACjXzG0AAEg7BsC2ZPADgM8aGGQAAEDaMQC2Yk6P7y3pxdEdUXI5TYluAABUFwNgK5ryOii6IZJXtG90AwCguhgAW+EVHRjdEMlz+l/RDQCA6mIAbIVL+0c3RDLnBAAA0o4BsBVmOiC6IZRzAgAAaccA2LpMnwDIGAAAkHYMgC3M7fd9Je0R3RGMAQAAKccA2EJ+MOM//T9j4mm3Os8CAIAUYwBswT3bvwHwrHU76RXRDQCA6mEAPF+2PwA4JF/J3jchAkCWMAC2YAwASfwqJACkHQNgCy69MrqhHpgxAAAgzRgAmyje5TtL2iu6ox64uAUAAGnGANjUOu0nyaIz6sTLF6705ugIAEB1MAA24QPZ/QbArWh+7DG9PDoCAFAdDIDN7RcdUE/M9KroBgBAdTAANmWcAGwmp4OjEwAA1cEA2ISLAbAZ17ToBABAdTAANpHjBGBL0+TOhyIBIIUYAJuo8BmALe3eXuaRwACQRgyAIcXFnjfXi6I76hC3AQAghRgAz9pLe0ni996fjwEAACnEABhSce0Z3VCPzHRIdAMAIHkMgCE2yCOAt+HQoUckAwBShAEwxMUJwDaMH/y7DouOAAAkiwEwxExTohvqVc71xugGAECyGABDzBkA22KmGdENAIBkMQCGcAtg29x12PG3+IToDgBAchgAz2EAbNu4ncbxOQAASBMGwHMYANvhOW4DAECaMACe5fwa4HaZjolOAAAkhwEwxE27RjfUNddBxWXOo5IBICUYAENM2im6oc5ZpaJjoyMAAMlgADyHp93tgEnHRTcAAJLBAHgOJwA71sqvAwJAOjAAnsMJwI7tPG68joqOAACMHQNAktxN0rjojEZgpuOjGwAAY8cAkFS8WztJsuiOBtF+VL83RUcAAMaGASCpeTX3/0dgr70GeSgQADQ6BoCkyjju/4+Eu06NbgAAjA0DQNLGHCcAI9S+oN/5/wwAGhgDQJIqykcnNJjdnhzU7OgIAMDoMQAkKafB6IRGY9wGAICGxgCQ5MYAGIXjTljufH8CADQoBoCkcQOqRDc0oAnNa3VKdAQAYHQYAJIGmxgAo5GTzohuAACMDgNA4jMAo+TSIXOX+UHRHQCAkWMASNJaBsBoWUXvjG4AAIwcA0DSwDhuAYyWSafN7/GJ0R0AgJFhAEjyPCcAY7D72pxOio4AAIwMA0BSpZkBMCauM6MTAAAjwwCQNP73Wh/d0NBMhxbLPj06AwAwfAwASaWTbIOkddEdDe6C6AAAwPAxAJ7zt+iARubSCe09/q/RHQCA4WEAPIcBMDY5y+k90REAgOFhAAwxBkASFpza71OiIwAAO8YAGOIMgCRM2DjAbwQAQCNgADyHAZCM8/iWQACofwyAZxkDICFTxv1dZ0dHAAC2jwHwLGcAJMb0AU4BAKC+MQCG8BmARO05bp3eHR0BANg2BsCQnLQ6uiFVXBdwCgAA9YsBMKTi+kN0Q8rsOe7vPBcAAOoVA2CIiQGQONMFp93qk6IzAADPxwAYYjkGQBVM3jBeH4mOAAA8HwNgSPM6BkCVvLu9118ZHQEA2BwDYMi3jrM1ktZGd6RQs5kuiY4AAGyOAbAJN/0puiGl5hZ6fWZ0BADgOQyATRi/CVA9ps92dDj/vgFAneAP5M0xAKrntQ9N1/zoCADAMxgAm/tjdECametzfF0wANQHBsCmXP8TnZBye24c1H9ERwAAGACbsZx+Fd2Qeq53zO31I6MzACDrGACbquiX0QkZYDnpyoUrvTk6BACyjAGwqWb9UpJHZ6Se6cDVq/W+6AwAyDKLDqg3hbL/QdI+0R0ZsNZNU7ta7JHoEADIIk4Anu8X0QEZsbO5vhQdAQBZxQB4Pj4HUDuz23v91OgIAMgiBsAWTPwmQC2Z6cvFsu8X3QEAWcMA2JJxAlBje8h0HY8JBoDa4g/dLQwanwGoNXe94eHpem90BwBkCQNgC/mcfi6pEt2RNe76dLHsr4ruAICsYABsoTTDnhKfA4gw3l03LOj3naJDACALGABbY7o/OiGTTAc+NahPRmcAQBYwALbCXA9EN2SW6/xijx8dnQEAaccA2Ao3BkCgnOf0rbn9vm90CACkGQNgKyp5bgEE+6f8gErH3Objo0MAIK0YAFvRPcN+K+mv0R1Z5tJhE5v1+egOAEgrBsC2mB6MToDObi/726MjACCNGADb4BVuA9QDk77U3uvTojsAIG0YANtgfBCwXuxkpq5T+31KdAgApAkDYBs8r3uiG/AP+20c0PXFxZ6PDgGAtGAAbEPXDP1Y0uroDvxDW2WSvhwdAQBpwQDYFjOXdHd0Bp5j0sJCr18Y3QEAadAUHVDXTCvkelN0BjZh+o9i2X9TarVvRadg64qLPa/JOtSl18v1Upn2lOsxSb9y13e6WnXP0MAGEMiiA+rZ3B5/Qy6nO6M78DwbrKJjSrPsjugQPKe42Mf5JJ0t6XxJ+23nL/2ppM9MXaFrOjqMb94EgjAAtqN4l+/sT+txSeOiW/A8T5j0+lKrPRQdAmlOj0/N5bTYpP1H8LfdnTctWNRiP69aGIBt4jMA21E6wtaadG90B7Zqd3fdxncGxCv2+hvzOd09wou/JB0+6Lq32OcLqxIGYLsYADvgphXRDdgG0775Ad1+2q0+KTolq04u+/5uulXSLqN8iYnuurJQ9m8Xb/O9kmwDsH0MgB2wCgOgnrk0dcN49Z7Y73tEt2RNR4fnKtI3NfqL/6ZO8GY9WFjmxyTwWgCGgQGwA0053RXdgB2a1rRRPcWy7x4dkiWrjtQ8lw5K8CX3UUX/XejzLxbv8p0TfF0AW8EA2IEbWuxPeuZTy6hnpkMlLT39Nt8tOiUrTDqrKi/rOqfytO5pL/trq/D6AIYwAIbBpb7oBuyYS4etb9bSE5b7rtEtaVfs931cOqxar2/S/iZ9v9DrF3Z0OH9OAVXAf1jDkHOVoxswbIePX6vbi/2exH1pbIMPqhbf0DhOpktWHak7imXf3nMFAIwCA2AY1k9Qv6SN0R0YHpeO1AAnAVX2ohq+1xtdeqjY6/Nr+J5A6jEAhuHm6fakST+M7sDwuXTkuLXqmdPne0a3pJFJE2v8lru56dr2sl/Phz2BZDAAhonPATSkw3Ou73F8nDyvxDxF1KTTXHqwUPajIt4fSBMGwDAZA6AhmbS/S9+fs9T/LboFidlP0h2FXr+suNh5TDcwSgyAYZo0ST+Q9LfoDozKC/JN6i/0+eujQ5AYk+lcTdLdJ5d9pI8gBiAGwLBdNc02ytUb3YFRck2Sq1zo9WJ0CpLj0kGD0r3FXj9P7ny5GTACDIARMOnm6AaMyXiZbmjv9TOjQ5Condz0hUKflp7S6y+MjgEaBQNgJCr6b0kD0RkYk7yZvtJe9isXrvTm6Bgkqm3AdH+h7G+ODgEaAQNgBEqzbbXElwOlgUkLV69ReU6P7x3dgkTtJemm9rJfy8OggO1jAIyQGbcBUuSNuZxWFnv84OgQJMuk+T6gB+f2+pHRLUC9YgCMUM707egGJMek/+U5fafY54XoFiTupTnTdwpl7ygu9nx0DFBvGAAjtGim/Uquh6M7kKhd3LW40OeX8MUzqdMk6WOapOXFpf6K6BignvCH3Si46aboBiTO5Lpw1ZG6ubjUJ0fHIFkuHeZ53VMo+1uiW4B6wQAYDdPi6ARUzZs8r4fbyz4rOgSJ203SNcWyd/IdEQADYFS6WuxBbgOk2j4m3c6jZtPJpfa8a1VhmR8T3QJEYgCMkolTgJQzmc71SVrR3uuvjI5B4vZRRf9d6PXLjrnNx0fHABEYAKOUy+v66AbUxDQz3VPs84XRIUicyXTuxCbdw5dFIYsYAKO0aKb9yqR7oztQE7u668pC2b91Yr/vER2DhJkOzOf1fb5PAFnDABgDNy2KbkBNndo0oJ/wSfJU2slNXyj2qbe4zF8UHQPUAgNgDCrPDACP7kBN7SPpmkLZvz233/eNjkGyXGrxih4olH1udAtQbQyAMeieab+W9N3oDoQ4ITegnxZ6/UKeMpc6e0rqai/7tScs912jY4BqYQCM3dejAxBmokyX+CR9r/0OPzA6BskyaX7zOj1YLPv06BagGhgAY7R+nTolPRHdgVCH26DubS/7J+f3+MToGCTHXC9xqb9Q9o6j+r0pugdIEgNgjG453v4u143RHQg3zqQPrc3p58U+X8htgVRpkvSxKRt5JgTShQGQAHd9I7oBdeOF7rrSJ+lBnjSXMqZDzXR/sdfPi04BksAASEDXLPuBpAejO1BXDlBFtxXLXp7T41OjY5CYCW76QqHPu0/t9ynRMcBYMAAS4tLV0Q2oPy615HO6t1D2y7lgpIhrzsYBPVDo9bboFGC0GAAJyW3UNyWtj+5AXWqW9J6NA3qk0OeXFG/zvaKDkIgXyrS0vc+/sKDfd4qOAUaKAZCQ0rH2F+cLgrB9u8p1oTfr0UKvX3ZKr78wOghjZuY676kB3dNe9tdGxwAjwQBIkOf0hegGNISJMp07YHqkvexX8kTBVDjApB8Uyt7R0eH8uYqGwL+oCeqeaffK9cPoDjSM8SYtzA3ol4Wyf2nuMn9xdBDGpFnSx1ZNV5lRh0bAAEiYSV+MbkDDGS/p7FxFjxTKfkt7n7fwrXQNzHV0bkCrCn1+enQKsD0MgKQ9rkWS/hSdgYaUk3ScucqFPv2k2Ovn8WTBhrW7XN8s9Pni0271SdExwNYwABJWOsk2uPS16A40vH9x0xfW5vT79rJf2d7j/xodhFFwFTeM131ze/wN0SnAlhgAVeBN+qqkgegOpMJuJi20nB4ulP2WYp8X+JWzhvPiXE53tJf9kwtXenN0DPAsBkAVdM+w3/IrgUhYTtJx7io9NaA/tpf9Wj4r0FDyJn1o9RrdVbzD/yU6BpAYANVjulSSR2cglXY3ab65yu19+nWhzy/hotIwpvmg7iv2+nmMN0TjX8AqKvT6bTLxhTCoDdcPZSrlTTcvarGfV/OtCr1+gUz/Wc33yICbBys6Y8ks+3N0CLKJAVBFhbIfJak/ugOZ9Ihct3pOt+y5h+68apptTPLFGQCJ+bNX9M6uWXZLdAiyhwFQZYWy3yXp8OgOZNpqmZbJdatJ3y612hNjfUEGQLJcum5CRWddN8uejm5BdjAAqqzY63Pc1B3dAQwZkOkBVbRC0vKBZpVvI8Y6CQAAE5JJREFUmmGPj/RFGABV8dNKTqd3z7R7o0OQDQyAanO3Qp9WSTogOgXYikFJP3Npubn6rKJlpdm2ekd/EwOgagYkfcrW6BOlk2wwOgbpxgCogWKvL3DTN6I7gGEYNNMqd91j0n2S7l+/sx64ebo9uelfxACoujsrOb21e6b9OjoE6cUAqIGj+r1pyoB+LOmV0S3AKFRc+qVJ95t0X0W6z0xvkOvfo8NS7gmTzi612reiQ5BODIAaKfb6fDddG90BoMGYSjagM4dzawYYCR4EVCuP61su/SQ6A0CDcRU9r/uGfq0YSAwnADXU3uunmonjPACj4XJd8fSAPnj7sbY+OgaNjxOAGnrVXVok6cHoDgANyWQ6d5dmrWzv81dHx6DxcQJQY4VeL8r4oiAAY7JOro6pd+mzHR1WiY5BY2IA1NozzwW4V9JrolMANDjX7dast5dm2B+jU9B4uAVQa2ZeMb0vOgNACpiO8QE9WCj7m6NT0Hg4AQhSKPvtkmZHdwBIB5euyzXp7NIMeyq6BY2BE4Ageel9euaxnwAwZibN9wE9OLfXj4xuQWPgBCBQoez/Jent0R0AUoXvE8CwcAIQqMn1EUl8/SeAJDVJ+phP0oriUn9FdAzqFwMg0I1t9nu5Ph/dASCVXud53Vvs84XRIahP3AIIdsJy33XcWv1c0j7RLQBSiu8TwFZwAhBs6GtWL4zuAJBiz3yfwMOFZX5MdArqBycA9eCZhwP1S3pjdAqAVOP7BPAPnADUAzMfrOjd4tcCAVSXyXTuxCbdU+x1nkaacQyAOrFklq1y6avRHQAywHSgm+4u9PqFHR3OdSCjuAVQR06/zXdb36yfSnpBdAuAbDCpTzktKM2030W3oLZYfnXk+mPtb5I+FN0BIDtcavGKVrX3+qnRLagtTgDqjbsVylou0xHRKQAy5+sbdtZ7h347CSnHCUC9MXN3vUMSn9AFUGtvb16nBwt9/vroEFQfJwB1qlD2Dkkfi+4AkEkDMn1u8h76yFXTbGN0DKqDE4A6ZWv0aZNWRXcAyKQmuS5cvVrL23v9ldExqA4GQJ0qnWQblNM7JPFtXgBimA410wPFXj8vOgXJ4xZAnSuU/fOSzo/uAJBxpiXNeS28YYb9NToFyeAEoM6tX6cPu/Sr6A4AGeeas3FAq4plf1N0CpLBCUADaO/zFnP1in9eAOK5XFfs0qwLr55h66JjMHpcUBpEoc+/KNc50R0AIEku/UTS6V2tdl90C0aHWwANYpe83s9vBQCoFybtb9IPCmXv4PsEGhMnAA1k7jI/KFfR3ZLGRbcAwD+Y7mga1IIbZ9lvolMwfKy2BtI90+6V9InoDgDYjOvogZweau/1edEpGD4GQIOZukKfNtN3ozsAYAu7m+m6Qp8vPu1WnxQdgx3jFkADKvb4Sz2nByTtGt0CAFvx60pFb+meZfywUscYAA2q2OfvcNfXojsAYBsGZbp08h7q4PsE6hMDoIG1l/1ak+ZHdwDAdqy0vOaVjrafRYdgc3wGoIFNqOisod/FBYB6Nc0HdV+x18+TOz901hH+YTS4OT0+NZ/TDyRNiG4BgO0xqWdwUG/rnm1/iG4BJwANb8ksW+XSe6M7AGBHXJqVy+v+9h4/ProFnACkRqHs10h6S3QHAAyHS9dNqOis62bZ09EtWcUJQErsXNHZfB4AQKMwaf7anFYWe/zg6Jas4gQgRYY+D3C3pF2iWwBgmDaY9DGt0WdLJ9lgdEyWMABSpr3PTzRXt/hnC6Cx3J3Paf6imfar6JCs4BZAynS12E1yfTK6AwBG6PDBiu4t9vnC6JCs4KfENHK3QlmLZSpEpwDAiJlKNqAzS7NtdXRKmnECkEZmvmGC3i7Xw9EpADBirmIlr/sLZT8qOiXNOAFIsfZef6WZfihpj+gWABgFl+uKpwf0wduPtfXRMWnDAEi5wjI/RhXdIikf3QIAo3SfmeaVWuzH0SFpwi2AlOucabfLdE50BwCMwWvddU+h1y/s6HCuWwnhBCAjCmX/P+KRwQAanavcJC24sc1+H53S6FhSGTF1hS6Q1B3dAQBjYmodMN1fKPubo1MaHScAGVK8y3f2p7VM0uHRLQAwVi5dl2vS2aUZ9lR0SyNiAGTMqf0+ZeOA7pL0yugWAEjAoxXX/O42WxEd0mgYABl08jJ/+WBFd0vaK7oFABIwINPnJu+hj1w1zTZGxzQKBkBGze31I3OmXkkTolsAIBGuu8w1rzTLHo1OaQR8CDCjuttshZveLImHawBIB9MRntMDfJ/A8HACkHHFXp/jpsWSmqJbACApJnUNmN61pMUei26pV5wAZFypzZbIdZYkj24BgKS41J53PVDs8aOjW+oVAwDqbLOvSfpgdAcAJOxFnlNve9nPjw6pRwwASJI6W+0/XfpUdAcAJCxv0ucZAc/HZwCwmULZL5f0nugOAEjYoElHlVpteXRIveAEAJvpbNF5Ln0xugMAEpaX9JXiYuebUYcwALA5M+9q0bmSrohOAYAkuTTVJ+m46I56wQDA85l5Z4vOc9Nl0SkAkLDTogPqBQMAW2fmXTN1PiMAQMpMjw6oFwwAbJuZd7XYe126JDoFABKyT3Gxj4uOqAcMAOxQV6tdLNPnojsAIAE5TdI+0RH1gAGAYelssffLdVF0BwCM1fqdtSa6oR4wADBsnW12qT/z2OBKdAsAjNLqm6fbk9ER9YABgBHparOvmuk0SRuiWwBgFB6KDqgXDACMWKnFFtkzXyX8dHQLAIyEm7qjG+oFAwCjUmqxpcqpTca9NAAN44nBvK6NjqgXDACMWudMu8tcb5Trt9EtALAjbvroTTPs8eiOesEAwJiUWu2hJul1ku6LbgGA7fjvVy3ne042xbcBIhHFft/FB3SDxHO2AdQZ0x3r1+r4W463v0en1BNOAJCI0gx7ytboRPElQgDqh0u6YvIems3F//k4AUDiin2+0F1fktQU3QIgs/7sFb2za5bdEh1SrxgAqIpin8921yJJu0W3AMgWk3oGB/W27tn2h+iWesYAQNUUe/01lZyWmOsl0S0AMuFpmS7obLEro0MaAQMAVTWnz/fMV3SDTK3RLQBSbaXlNa90tP0sOqRR8CFAVNWSFnvMHtcxMl2qZz6QAwBJqsh1ua3RkVz8R4YTANRMsc9Pdtd/SZoY3QIgFX5dqegt3bPsu9EhjYgTANRMqcUWuekISY9EtwBocKbSuPV6LRf/0eMEADU3p8/3bHJd79Ks6BYADca0xl1ndrXa4uiURscAQAx3K5Z1rps+K6k5OgdAAzDdUcnrrd0zjO8fSQC3ABDDzEttdlnFdKSkR6NzANS1jZI+PnW5Wrn4J4cTAIQrln13N/1fuYrRLQDqi0s/kXR6V6vxhWMJYwCgbgw9QvhySeOjWwCEc5f+74Z1Op/n+FcHAwB1pdjjB3tON0p6RXQLgDB/cOltXa3WEx2SZnwGAHWlNMvusYl6tZ45CeDBQUDWmJY0N+nVXPyrjxMA1K1in7d6RV+Xad/oFgBVt9ZcF5fa7LLokKxgAKCuFcu+e0X6jEkLo1sAVInrhy7N62qzX0SnZAkDAA2h2OcFd31F0pToFgCJGZDpc5P30EeummYbo2OyhgGAhlHs9300qKvcdXx0C4CxcelXOdP8UovdHd2SVQwANJz2Hj/ecvqKpBdFtwAYOZeu27izzrl5uj0Z3ZJlDAA0pBP7fY+mjfq4TO8Wv80CNIrH3XV2V5vdEB0CBgAaXLHs0126UtIB0S0AtmuZ5fTW0kz7XXQInsFPTmhopVZbPnmSXiPXRZLWR/cAeJ51cl00dYXauPjXF04AkBonl33/Qekrkt4Y3QJAkvTgYEWnL5llq6JD8HwMAKROe48fr7wuN9dLoluAjOI5/g2AAYBUKt7lO/tTOlemD0vaJboHyJA/Kqe3d86026NDsH0MAKRacZm/qFLRf5g0T/z7DlSVSV0DpnctabHHoluwY/yBiExo7/HXWU6XSXpddAuQQk+a6f2lFrsqOgTDx28BIBO6ZtkPbI2OlOsMuX4b3QOkhusuq+jfuPg3Hk4AkDnFxT5Ok7XAXZ+QtHd0D9CgeI5/g2MAILOK/b6Lb9Q5Mv27pN2ie4AG8mjFNb+7zVZEh2D0GADIvFP7fcrGQb1frvdKGh/dA9Qzl67LNens0gx7KroFY8MAAIacvMxfPujqkOtUSfnoHqDO/EXSGZ2t9u3oECSDAQBsodjjL3XTe2V6lzgRACRXuUlacGOb/T46BclhAADbUCz7fu66QKYzJO0c3QMEWCdXx9S79NmODqtExyBZDABgB+b0+N75nM6WdL74sCAywqRVFdPpXS32YHQLqoMBAAxT8Tbfy8fpvZLOkmtSdA9QJRW5/tMe10dKJ9mG6BhUDwMAGKEF/b7TUwM6SdKFkg6I7gGS4tJv3PTW7hbrj25B9TEAgNFyt/Zlmmmu8yS9Sfz3hEZmKtmAzizNttXRKagN/sACEnByn//zYEXn8IFBNKC/mekDPMo3exgAQILm9Pje+bzeJdc7Je0X3QNsj5m+O2h6S/dM+3V0C2qPAQBUQUeH5x6arqNNWijXiZKao5uATQxI+pSt0SdKJ9lgdAxiMACAKiv2+z6+UW910xkmvTy6B5n3U6toXmmW3RMdglgMAKCGij1+cCWnhSbNF58VQI25dN2Eis66bpY9Hd2CeAwAIMCJ/b5H04BOMGm+S0dLykU3IdX+Yq53ltrs5ugQ1A8GABBsbr/vm9+odpmKLh0Z3YN0MalncFBv655tf4huQX1hAAB1pNjnB7jrJJfm8XkBjNFac11catXlMvPoGNQfBgBQj9xtbllH5EwnujSHMYARWml5zSsdbT+LDkH9YgAADaC9z1+Wq+j4odsER4j/drF1Fbm+aI/rAzzHHzvCHyJAgxn6dsLZkoqS2iSNC05Cffgfc72l1GZ3RoegMTAAgAZ22q0+af14tZqpVa428fTBbDJ901zvLrXaE9EpaBwMACBF2vv8ZTmpxaWWoUGwe3QTquoJd727q82+GR2CxsMAAFJq4UpvXrNaR3hObaqoRaaDJDVFdyEZJvXnK3rrjbPsN9EtaEwMACAj5vf4xHU5vdZdR8o0XaYj5ZoU3YUR2yjp0zzHH2PFAAAyqrjY85Up+tdcRUdWXNNler25XhLdhW1z6See07zumXZvdAsaHwMAwD/MXeYvzlV0sEsHmXSwpIMk7R3dBbmkL9pEXVg6wtZGxyAdGAAAtuuUXn/hRtfBltPBMh0g14GSDojuypA/y/SOzha7NToE6cIAADBihT6/WK5PR3eknUk3NTXpjBtm2F+jW5A+fCIYwMhVtIEfH6rqmef4t9ll0SFILwYAANQRk36UM81b1Go/j25BuvEd5ABQHwZlulRrNH1RCxd/VB8nAAAQ79cyze9sse9FhyA7OAEAgEim0kCTXsPFH7XGCQAAxHjcpHNKLfat6BBkEwMAAGpvWaVJC7pn2G+jQ5Bd3AIAgNpZL9dFU1eojYs/onECAAC18WNznV5qs/s7o0sAcQIAANXmLl21fp0OKbXZ/dExwLM4AQCA6vmTu97e1Wa3RYcAW+IEAACqo3vQdCAXf9QrTgAAIFlPmun9pRa7KjoE2B4GAAAkxfVDl+Z1ttovolOAHeEWAACM3YBMl06erOldbVz80Rg4AQCAsXm04prf3WorokOAkeAEAABGyaXrrEmv7m7j4o/GwwkAAIzcX910RleL3RQdAowWAwAARsCkPuW0oHOm/S66BRgLbgEAwPCsk+uiA1doVomLP1KAEwAA2BHXw4MVnb5ktj3Ac/yRFpwAAMC2uVyXPz2gg5fMtgeiY4AkcQIAAFv3RzO9rdRqS6NDgGrgBAAAtuTqtEEdWGrh4o/04gQAAJ7zNzN9oNTKc/yRfgwAAJBk0vdzOc1bNNN+Fd0C1AK3AABk3YCkj2uNpnPxR5ZwAgAgyx5RTvM7Z9pd0SFArXECACCThp7j/29c/JFVnAAAyJq/mOudnW12c3QIEIkTAABZ0tvkek2Jiz/ACQCATFhrrotLrbpcZh4dA9QDBgCAtHvIpNNLbfZQdAhQT7gFACCtXK7LbY2mlVq5+ANb4gQAQBr9j7neUmqzO6NDgHrFCQCAdDGVxq3Xa7j4A9vHCQCAtPibud5darXrokOARsAAAJAGd7tpXmerPRIdAjQKbgEAaGQDkj5ua/T6rhYu/sBIcAIAoCG59BPPaV73TLs3ugVoRJwAAGg07tJVEyo6hIs/MHqcAABoJH+W6R1dLXZrdAjQ6DgBADBiLq0LeNtv20ZN7eTiDySCEwAAI2Y5PabaPVH/aTO9r9RiV9XsHYEMYAAAGDGTHqzF9d+kH+VM8xa12M9r8HZApnALAMCIHbhcP5X0uyq+xaCkT06apCO5+APVYdEBABpToc8/Jde/V+GlH6245ne32YoqvDaAIZwAABiVQenzkh5P9EVd14zfqNdw8QeqjxMAAKPWXvaTTFqUwEs9IdM5nS12fQKvBWAYOAEAMGpdrbZYrv8Y48ssqzRpKhd/oLYYAADGpLPN/t2kD+qZD+6NxHozXTB1hdq6Z9hvq9EGYNu4BQAgEe29Ps1Ml0s6fId/set2a9L5paPtZ9UvA7A1DAAAiSr2+eGVigpmeoOkl0iaIukxSb+U607P6fquFnswNBKA/j9DX5Wo590QTwAAAABJRU5ErkJggg==;rotation=90;" vertex="1" parent="1">
          <mxGeometry x="760" y="600" width="30" height="30" as="geometry" />
        </mxCell>
        <mxCell id="8N-V9I-CrBm6m9oQKu6N-152" value="" style="shape=image;verticalLabelPosition=bottom;labelBackgroundColor=default;verticalAlign=top;aspect=fixed;imageAspect=0;image=data:image/png,iVBORw0KGgoAAAANSUhEUgAAAgAAAAIACAYAAAD0eNT6AAAABHNCSVQICAgIfAhkiAAAAAlwSFlzAAAOxAAADsQBlSsOGwAAABl0RVh0U29mdHdhcmUAd3d3Lmlua3NjYXBlLm9yZ5vuPBoAACAASURBVHic7d15gFx1ma/x71vVnUDClhAYVC7uMwNERyEgS1RCujsBAUm6ijXRuBBZFERUYNza6zKgo1fADa6jLCIk1d1BYCDd1aFFE3AJe3AXruO+kICA2brrvX/QSBKy9HKq3qpzns/fUPUokPPt36k+ZQKQiGK/7+IDOtNM89x1oKS1ZvqOmy7pnGl3RfcBwKYsOgBodMXFPq4yWWea60OS9t7KX1Ix0wdKLfb5WrcBwLYwAIBRKi72fGWy5pnr45JevIO/3GU6obPFbq1FGwDsSC46AGg47tbe5yf6JD1orqu144u/JJm7PlPlMgAYNk4AgBEo9vjRntOnJb1uNH+/5zW162h7OOEsABixpugAoBG09/o0kz7tptaxvI5V9FJJDAAA4RgAwHaccru/ZKBZn5GroAROzMz1eAJZADBmDABgK+b3+MS1OV00IL1frp0Setm/TmzSyoReCwDGhAEAbMrdin06da3rUkn7JvvS+sjVM2xdkq8JAKPFhwCBIUP3+S+T6YjEX9z1ic42+2jirwsAo8QAQObN6fM98xV9VKZzJOUTfvmnzPTOUostSvh1AWBMGADIrIUrvXnNap3tpo9L2j3p13fp55WK2pfMslVJvzYAjBUDAJlU7PPWiuuLJv1zVd7AVNqwk95x83R7siqvDwBjxABAppx2q09aP16XmHSGqvPv/4BcH+5s1Wdk5lV4fQBIBAMAmVHo9aJMX5K0V5Xe4s9W0amlWXZHlV4fABLDAEDqtff5y8z1FUltVXyb71UGdXL3bPtDFd8DABLDAEBqLVzpzWvW6AKXPipp52q9j7s+/1izLvzODBuo1nsAQNIYAEil9rK/1qSrJE2r4tsMuOs9XW321Sq+BwBUBU8CRKoU+30X36hPSXq3qvt114+Zq72zze6s4nsAQNVwAoDUmFv2w0y6pmq/2vecX3pFx3fNsp9W+X0AoGo4AUDDW7jSm1ev0YckfVjJP8lvMyat0EbN6TzW/lLN9wGAauMEAA2t/Q4/MDeoa106qAZv93Vbo7NKJ9mGGrwXAFQVAwCNyd2KZZ3rpkslja/2u0n6352t1lHl9wGAmmEAoOEUe/ylyutqd72hBm/3tJvmdbXYTTV4LwCoGQYAGsrQ0/yukrRH1d/MtKZS0fHdbbai6u8FADXGAEBDKC71ycrrv1w6sUZv+fvBimbxTX4A0orfAkDda+/1aW5aJOllNXrLR21QbUtm2y9r9H4AUHPVfFAKMDbuVuz188y0QjW6+Ju0qsk1vcTFH0DKcQsAdalY9t3d9TWZCrV6TzN9V64TSq32RK3eEwCicAsAdWdunx/irkUyvbSGb3urJuik0hG2tobvCQBhuAWA+jF05J9zLZdqePE3fXPyJM3l4g8gS7gFgLpQXOqTPa9rJB1X47f+ameLzpaZ1/h9ASAUAwDh5i7zg3IVLZG0Xy3f16Wrulp0Jhd/AFnELQCEai/7SbmKvqcaX/wlff1VK3QWF38AWcUAQAx3K/T6hSbdKGlCjd/9G1NX6IyODqvU+H0BoG5wCwA1d8Jy33X8Wl1bw6f6/YObrn7Vcr2Diz+ArGMAoKaKS/0VntNNMh1Y8zd33WiPa17pJBus+XsDQJ1hAKBmCr3eppxulGtSrd/bpUWPNWned2bYQK3fGwDqEZ8BQE0Uev0CmW6LuPjLdWNujU7n4g8Az+EEAFW1cKU3P/a4rjLXgqCEXluj40sn2Yag9weAusQAQNUU+30X36jFMh0TlLDSmjSjNMOeCnp/AKhbDABUxdyl/oJ8Xre6dFBQwi+bTdNvaLE/Bb0/ANS1fHQA0qfY5weYqV/S/kEJv28a0FE3zrLfBb0/ANQ9PgSIRBX7/HB33SnpxUEJT5jrTTceY/8v6P0BoCEwAJCYQtnnumuZpClBCWtlOr7UZvcHvT8ANAwGABLRXvbzJZUk7RyUMGiuUzpb7HtB7w8ADaUpOgANzt0KffqcpPNDM0zv62y1myMbAKCR8FsAGLXiYs/7JF0l6e3BKd/obLXoBgBoKJwAYFSGLv5fl/SW4JTltkZnBjcAQMPhBAAjVlzs43ySbpA0N7LDTf8vt0GHlo61v0R2AEAj4gQAI3LMbT7em7VY0gnBKU/mXCdw8QeA0WEAYNiOv8Un7NSsb7vUEpxSMde8Ups9FNwBAA2LAYBhKfb7LhrQzS7NiG6R6eISn/gHgDHhMwDYoeJSn6y8lrp0SHSLpOs7W21edAQANDpOALBdc/p8T0nL3PVv0S2SfrxzRe+KjgCANODLgLBNp9/mu3lOvYHf6LepdYODOmbRbPtNdAgApAGPAsZWHX+LT9gwTrfUybG/zHXWktn2QHQHAKQFtwDwPMXFPs53Upe73hDdMuQbpTa7OjoCANKEEwBsZuFKb/ZJ6pI0O7pFkuR6eP06vTs6AwDShs8A4B+Kiz3/d+mbFvyEv008bTm1LTnGfh8dAgBpwwkAJEkdHZ7zybrapJOjWzZxdqnFfhwdAQBpxAkAJHebMqir5FoQnbKJaztb7ePREQCQVpwAQIVl+qxc74zueJZLvzHp3OgOAEgzBkDGFct+llwXRHdswnOmhaVWeyI6BADSjAGQYcVeP8GlK6I7NmP6cqnFlkZnAEDaMQAyqrjMD3XTDaqvz4E8YnldFB0BAFnAg4AyqLjUX+EV3SppQnTLJiqVit7WPcOeig4BgCzgBCBjirf5Xp7X7ZL2im7ZjOmz3bPsu9EZAJAVDIAMmd/jE71Zt0l6RXTLpkxa9fQGfSy6AwCyhAGQEcXFnl+b0/WSpkW3bKEi08Lbj7X10SEAkCUMgIyoTNIVkt4c3bEll75WarG7ozsAIGsYABlQ7PUFJp0V3bEVfx3XpA9FRwBAFjEAUq6wzI9w01ejO7bGXO+7YYb9NboDALLIogNQPaf0+gsHTD+S9MLoli2Z6bulmTpKZh7dAgBZxAlASi3o950GTTepDi/+kjbkXGdy8QeAODwIKKWeGtCXJR0S3bENn1nUaj+JjgCALOMEIIWKff4+SW+L7tiGR2yiPh0dAQBZxwBImfY+b3HXpdEd22KmC0tH2NroDgDIOj4EmCLtff4yc/1I0uTolq0x6fulFh3BvX8AiMcJQEosXOnNOdf1qtOL/5APcPEHgPrAhwBTYvUafUbSYdEd22JSV6nVlkd3AACewQlACrT3+rGSzovu2I6NFdfF0REAgOcwABrc3H7f10zXqL4/z/HVrjb7RXQEAOA5DIAGdlS/N+UGdIOkKdEt2/Fks+lT0REAgM0xABrYlEF9XNL06I7tcl1yQ4v9KToDALA5BkCDmtvnM+S6MLpjBx7bMEFXREcAAJ6PAdCA5vT43kO/8pePbtkek/7PzdPtyegOAMDzMQAajbs15XStpBdEp+zA45K+GB0BANg6BkCDaS/rXS7Niu4YhstKrfZEdAQAYOsYAA3klNv9JWb6THTHMPxt3HpdFh0BANg2BkCD6Ojw3ECTviFp1+iWHXHpim8dZ2uiOwAA28YAaBAPHanzJB0V3TEMT+c28tM/ANQ7BkADKN7h/2JqmIfpfKV0rP0lOgIAsH0MgDrX0eE5H9TXJO0c3TIMg1bRl6MjAAA7xgCoc6uO0EWq96f9Pcu1pDTLHo3OAADsGAOgjhXL/iqZPhrdMVwV56l/ANAoGAB1qqPDcy5dKWl8dMsw3d89y74bHQEAGB4GQJ1aNV1nSDo8umMELo8OAAAMHwOgDp3a71Pk+mR0xwj8ZZcm3RAdAQAYPgZAHdowoM9LmhLdMQJXXj3D1kVHAACGjwFQZ+b2+QyT5kV3jMBgpUlXRkcAAEaGAVBHiot9nLm+JMmiW4bLpJ7uGfbb6A4AwMgwAOqIT9IHTdo/umMkKtI10Q0AgJFjANSJucv8xZIuiu4YEdOaXZt0c3QGAGDkGAB1Iv/MI3QnRneMiOsGPvwHAI2JAVAH2nv9WJeOje4YqYrp6ugGAMDoNMyHzdKquNjzmqT7XZoa3TJCP+5stQOjIwAAo8MJQLDKHjqjAS/+MvHTPwA0MgZAoNNv893M1BHdMQqVwUF9MzoCADB6DIBA65p1saR/iu4YhRXds+0P0REAgNFjAASZ2+/7mnRudMcodUcHAADGhgEQxAZ0qaQJ0R2jYRV9O7oBADA2/BZAgOIyP9Qr+r4a8///lZ2tdkh0BABgbDgBCOAV/aca8+IvuZZEJwAAxo4BUGPtZZ8l6fXRHaPlzv1/AEgDBkCNmfTh6IZRcz3cNct+Gp0BABg7BkANFft8tqTp0R1jwBf/AEBKMABqyL0hH/rzDyb1RDcAAJLBAKiR9l4/VtLrojvG4OmnBvT96AgAQDIYADVi0seiG8bCpDtvP9bWR3cAAJLBAKiBQp8fJ9Oh0R1jUZH6ohsAAMlhANSAuT4a3TBWlYrK0Q0AgOQwAKqsvcePd6nRn5z3hyVtejg6AgCQHAZAlVlOF0c3jJVLfTLz6A4AQHIYAFVU7PPDJR0e3TFWOdcd0Q0AgGQxAKrIXe+PbkhEk+6OTgAAJKsxv5CmARR7/KWe0y8k5aNbxujxzhZN5hYAAKQLJwBV4nldoMa/+EvS97n4A0D6MACqoLjUJ8u1ILojIT+IDgAAJI8BUAXepHMkTYzuSIIZj/8FgDRiACTsmNt8vFxnR3ckxAekH0VHAACSxwBI2MQmzZe0T3RHQn6+pMUei44AACSPAZA003uiExK0MjoAAFAdDIAEDT3459XRHUkxaVV0AwCgOhgACXLXGdENSXJjAABAWjEAElIs++6SToruSJIN8gVAAJBWDIDkzFdKfvVvyNMH3q1fR0cAAKqDAZAQl94R3ZAo18MdHVaJzgAAVAcDIAFDH/57TXRHoozjfwBIMwZAAtL24T9JkjMAACDNGABjNPThv5OjO5Jmpp9GNwAAqocBMEZuOl3ShOiOpA1U+AAgAKQZA2CsXPOiE6phcCIDAADSjAEwBnOX+YslHRbdUQWrb55uT0ZHAACqhwEwBrlBnS7JojuqgJ/+ASDlGABjYKZToxuq5H+iAwAA1cUAGKX2Pn+1S1OjO6rCOQEAgLRjAIyWp/anf1mOAQAAaccAGA13k+mU6Ixqcen30Q0AgOpiAIzC3LKOMNdLojuqxaW/RjcAAKqLATAKuVx6j/8lSa7HohMAANXFABihjg7PyTU3uqOamge0JroBAFBdDIAReuhwHSLpBdEd1TS4E7cAACDtGAAjldPx0QlVtqE0w56KjgAAVBcDYIRMqR8A3P8HgAxgAIxAsez7SXp1dEc1GQMAADKBATACFU/9T/+SxPE/AGQAA2AETHpzdEO1ubQ+ugEAUH0MgGEq9vsuMr0huqMGGAAAkAEMgGHyjTpG0vjojhrYEB0AAKg+BsDwvSk6oEYYAACQAQyA4TK1RCfUCLcAACADGADDULzD/0XSi6I7asI5AQCALGAADENlQDOiG2rGGAAAkAUMgGGwnI6ObgAAIEkMgB1xN7neGJ1RK25qjm4AAFQfA2AH2pfpVZL2ju6oFXMGAABkAQNgB3KVDN3/fwYDAAAygAGwA24ZGwDcAgCATGAAbEdxsecz8vjf53ALAAAygQGwHZVJerVck6I7amxcdAAAoPoYANvjel10QgAGAABkAANgO8x0aHRDgN2jAwAA1ccA2B7P3gBwy9wtDwDIJAbANhT7fReZ/jW6o9Yse595AIBMYgBsgw9omqR8dEeA3YqLPYv/uwEgUxgA22DSIdENQUy78TkAAEg7BsA2uGV2ACjXzG0AAEg7BsC2ZPADgM8aGGQAAEDaMQC2Yk6P7y3pxdEdUXI5TYluAABUFwNgK5ryOii6IZJXtG90AwCguhgAW+EVHRjdEMlz+l/RDQCA6mIAbIVL+0c3RDLnBAAA0o4BsBVmOiC6IZRzAgAAaccA2LpMnwDIGAAAkHYMgC3M7fd9Je0R3RGMAQAAKccA2EJ+MOM//T9j4mm3Os8CAIAUYwBswT3bvwHwrHU76RXRDQCA6mEAPF+2PwA4JF/J3jchAkCWMAC2YAwASfwqJACkHQNgCy69MrqhHpgxAAAgzRgAmyje5TtL2iu6ox64uAUAAGnGANjUOu0nyaIz6sTLF6705ugIAEB1MAA24QPZ/QbArWh+7DG9PDoCAFAdDIDN7RcdUE/M9KroBgBAdTAANmWcAGwmp4OjEwAA1cEA2ISLAbAZ17ToBABAdTAANpHjBGBL0+TOhyIBIIUYAJuo8BmALe3eXuaRwACQRgyAIcXFnjfXi6I76hC3AQAghRgAz9pLe0ni996fjwEAACnEABhSce0Z3VCPzHRIdAMAIHkMgCE2yCOAt+HQoUckAwBShAEwxMUJwDaMH/y7DouOAAAkiwEwxExTohvqVc71xugGAECyGABDzBkA22KmGdENAIBkMQCGcAtg29x12PG3+IToDgBAchgAz2EAbNu4ncbxOQAASBMGwHMYANvhOW4DAECaMACe5fwa4HaZjolOAAAkhwEwxE27RjfUNddBxWXOo5IBICUYAENM2im6oc5ZpaJjoyMAAMlgADyHp93tgEnHRTcAAJLBAHgOJwA71sqvAwJAOjAAnsMJwI7tPG68joqOAACMHQNAktxN0rjojEZgpuOjGwAAY8cAkFS8WztJsuiOBtF+VL83RUcAAMaGASCpeTX3/0dgr70GeSgQADQ6BoCkyjju/4+Eu06NbgAAjA0DQNLGHCcAI9S+oN/5/wwAGhgDQJIqykcnNJjdnhzU7OgIAMDoMQAkKafB6IRGY9wGAICGxgCQ5MYAGIXjTljufH8CADQoBoCkcQOqRDc0oAnNa3VKdAQAYHQYAJIGmxgAo5GTzohuAACMDgNA4jMAo+TSIXOX+UHRHQCAkWMASNJaBsBoWUXvjG4AAIwcA0DSwDhuAYyWSafN7/GJ0R0AgJFhAEjyPCcAY7D72pxOio4AAIwMA0BSpZkBMCauM6MTAAAjwwCQNP73Wh/d0NBMhxbLPj06AwAwfAwASaWTbIOkddEdDe6C6AAAwPAxAJ7zt+iARubSCe09/q/RHQCA4WEAPIcBMDY5y+k90REAgOFhAAwxBkASFpza71OiIwAAO8YAGOIMgCRM2DjAbwQAQCNgADyHAZCM8/iWQACofwyAZxkDICFTxv1dZ0dHAAC2jwHwLGcAJMb0AU4BAKC+MQCG8BmARO05bp3eHR0BANg2BsCQnLQ6uiFVXBdwCgAA9YsBMKTi+kN0Q8rsOe7vPBcAAOoVA2CIiQGQONMFp93qk6IzAADPxwAYYjkGQBVM3jBeH4mOAAA8HwNgSPM6BkCVvLu9118ZHQEA2BwDYMi3jrM1ktZGd6RQs5kuiY4AAGyOAbAJN/0puiGl5hZ6fWZ0BADgOQyATRi/CVA9ps92dDj/vgFAneAP5M0xAKrntQ9N1/zoCADAMxgAm/tjdECametzfF0wANQHBsCmXP8TnZBye24c1H9ERwAAGACbsZx+Fd2Qeq53zO31I6MzACDrGACbquiX0QkZYDnpyoUrvTk6BACyjAGwqWb9UpJHZ6Se6cDVq/W+6AwAyDKLDqg3hbL/QdI+0R0ZsNZNU7ta7JHoEADIIk4Anu8X0QEZsbO5vhQdAQBZxQB4Pj4HUDuz23v91OgIAMgiBsAWTPwmQC2Z6cvFsu8X3QEAWcMA2JJxAlBje8h0HY8JBoDa4g/dLQwanwGoNXe94eHpem90BwBkCQNgC/mcfi6pEt2RNe76dLHsr4ruAICsYABsoTTDnhKfA4gw3l03LOj3naJDACALGABbY7o/OiGTTAc+NahPRmcAQBYwALbCXA9EN2SW6/xijx8dnQEAaccA2Ao3BkCgnOf0rbn9vm90CACkGQNgKyp5bgEE+6f8gErH3Objo0MAIK0YAFvRPcN+K+mv0R1Z5tJhE5v1+egOAEgrBsC2mB6MToDObi/726MjACCNGADb4BVuA9QDk77U3uvTojsAIG0YANtgfBCwXuxkpq5T+31KdAgApAkDYBs8r3uiG/AP+20c0PXFxZ6PDgGAtGAAbEPXDP1Y0uroDvxDW2WSvhwdAQBpwQDYFjOXdHd0Bp5j0sJCr18Y3QEAadAUHVDXTCvkelN0BjZh+o9i2X9TarVvRadg64qLPa/JOtSl18v1Upn2lOsxSb9y13e6WnXP0MAGEMiiA+rZ3B5/Qy6nO6M78DwbrKJjSrPsjugQPKe42Mf5JJ0t6XxJ+23nL/2ppM9MXaFrOjqMb94EgjAAtqN4l+/sT+txSeOiW/A8T5j0+lKrPRQdAmlOj0/N5bTYpP1H8LfdnTctWNRiP69aGIBt4jMA21E6wtaadG90B7Zqd3fdxncGxCv2+hvzOd09wou/JB0+6Lq32OcLqxIGYLsYADvgphXRDdgG0775Ad1+2q0+KTolq04u+/5uulXSLqN8iYnuurJQ9m8Xb/O9kmwDsH0MgB2wCgOgnrk0dcN49Z7Y73tEt2RNR4fnKtI3NfqL/6ZO8GY9WFjmxyTwWgCGgQGwA0053RXdgB2a1rRRPcWy7x4dkiWrjtQ8lw5K8CX3UUX/XejzLxbv8p0TfF0AW8EA2IEbWuxPeuZTy6hnpkMlLT39Nt8tOiUrTDqrKi/rOqfytO5pL/trq/D6AIYwAIbBpb7oBuyYS4etb9bSE5b7rtEtaVfs931cOqxar2/S/iZ9v9DrF3Z0OH9OAVXAf1jDkHOVoxswbIePX6vbi/2exH1pbIMPqhbf0DhOpktWHak7imXf3nMFAIwCA2AY1k9Qv6SN0R0YHpeO1AAnAVX2ohq+1xtdeqjY6/Nr+J5A6jEAhuHm6fakST+M7sDwuXTkuLXqmdPne0a3pJFJE2v8lru56dr2sl/Phz2BZDAAhonPATSkw3Ou73F8nDyvxDxF1KTTXHqwUPajIt4fSBMGwDAZA6AhmbS/S9+fs9T/LboFidlP0h2FXr+suNh5TDcwSgyAYZo0ST+Q9LfoDozKC/JN6i/0+eujQ5AYk+lcTdLdJ5d9pI8gBiAGwLBdNc02ytUb3YFRck2Sq1zo9WJ0CpLj0kGD0r3FXj9P7ny5GTACDIARMOnm6AaMyXiZbmjv9TOjQ5Condz0hUKflp7S6y+MjgEaBQNgJCr6b0kD0RkYk7yZvtJe9isXrvTm6Bgkqm3AdH+h7G+ODgEaAQNgBEqzbbXElwOlgUkLV69ReU6P7x3dgkTtJemm9rJfy8OggO1jAIyQGbcBUuSNuZxWFnv84OgQJMuk+T6gB+f2+pHRLUC9YgCMUM707egGJMek/+U5fafY54XoFiTupTnTdwpl7ygu9nx0DFBvGAAjtGim/Uquh6M7kKhd3LW40OeX8MUzqdMk6WOapOXFpf6K6BignvCH3Si46aboBiTO5Lpw1ZG6ubjUJ0fHIFkuHeZ53VMo+1uiW4B6wQAYDdPi6ARUzZs8r4fbyz4rOgSJ203SNcWyd/IdEQADYFS6WuxBbgOk2j4m3c6jZtPJpfa8a1VhmR8T3QJEYgCMkolTgJQzmc71SVrR3uuvjI5B4vZRRf9d6PXLjrnNx0fHABEYAKOUy+v66AbUxDQz3VPs84XRIUicyXTuxCbdw5dFIYsYAKO0aKb9yqR7oztQE7u668pC2b91Yr/vER2DhJkOzOf1fb5PAFnDABgDNy2KbkBNndo0oJ/wSfJU2slNXyj2qbe4zF8UHQPUAgNgDCrPDACP7kBN7SPpmkLZvz233/eNjkGyXGrxih4olH1udAtQbQyAMeieab+W9N3oDoQ4ITegnxZ6/UKeMpc6e0rqai/7tScs912jY4BqYQCM3dejAxBmokyX+CR9r/0OPzA6BskyaX7zOj1YLPv06BagGhgAY7R+nTolPRHdgVCH26DubS/7J+f3+MToGCTHXC9xqb9Q9o6j+r0pugdIEgNgjG453v4u143RHQg3zqQPrc3p58U+X8htgVRpkvSxKRt5JgTShQGQAHd9I7oBdeOF7rrSJ+lBnjSXMqZDzXR/sdfPi04BksAASEDXLPuBpAejO1BXDlBFtxXLXp7T41OjY5CYCW76QqHPu0/t9ynRMcBYMAAS4tLV0Q2oPy615HO6t1D2y7lgpIhrzsYBPVDo9bboFGC0GAAJyW3UNyWtj+5AXWqW9J6NA3qk0OeXFG/zvaKDkIgXyrS0vc+/sKDfd4qOAUaKAZCQ0rH2F+cLgrB9u8p1oTfr0UKvX3ZKr78wOghjZuY676kB3dNe9tdGxwAjwQBIkOf0hegGNISJMp07YHqkvexX8kTBVDjApB8Uyt7R0eH8uYqGwL+oCeqeaffK9cPoDjSM8SYtzA3ol4Wyf2nuMn9xdBDGpFnSx1ZNV5lRh0bAAEiYSV+MbkDDGS/p7FxFjxTKfkt7n7fwrXQNzHV0bkCrCn1+enQKsD0MgKQ9rkWS/hSdgYaUk3ScucqFPv2k2Ovn8WTBhrW7XN8s9Pni0271SdExwNYwABJWOsk2uPS16A40vH9x0xfW5vT79rJf2d7j/xodhFFwFTeM131ze/wN0SnAlhgAVeBN+qqkgegOpMJuJi20nB4ulP2WYp8X+JWzhvPiXE53tJf9kwtXenN0DPAsBkAVdM+w3/IrgUhYTtJx7io9NaA/tpf9Wj4r0FDyJn1o9RrdVbzD/yU6BpAYANVjulSSR2cglXY3ab65yu19+nWhzy/hotIwpvmg7iv2+nmMN0TjX8AqKvT6bTLxhTCoDdcPZSrlTTcvarGfV/OtCr1+gUz/Wc33yICbBys6Y8ks+3N0CLKJAVBFhbIfJak/ugOZ9Ihct3pOt+y5h+68apptTPLFGQCJ+bNX9M6uWXZLdAiyhwFQZYWy3yXp8OgOZNpqmZbJdatJ3y612hNjfUEGQLJcum5CRWddN8uejm5BdjAAqqzY63Pc1B3dAQwZkOkBVbRC0vKBZpVvI8Y6CQAAE5JJREFUmmGPj/RFGABV8dNKTqd3z7R7o0OQDQyAanO3Qp9WSTogOgXYikFJP3Npubn6rKJlpdm2ekd/EwOgagYkfcrW6BOlk2wwOgbpxgCogWKvL3DTN6I7gGEYNNMqd91j0n2S7l+/sx64ebo9uelfxACoujsrOb21e6b9OjoE6cUAqIGj+r1pyoB+LOmV0S3AKFRc+qVJ95t0X0W6z0xvkOvfo8NS7gmTzi612reiQ5BODIAaKfb6fDddG90BoMGYSjagM4dzawYYCR4EVCuP61su/SQ6A0CDcRU9r/uGfq0YSAwnADXU3uunmonjPACj4XJd8fSAPnj7sbY+OgaNjxOAGnrVXVok6cHoDgANyWQ6d5dmrWzv81dHx6DxcQJQY4VeL8r4oiAAY7JOro6pd+mzHR1WiY5BY2IA1NozzwW4V9JrolMANDjX7dast5dm2B+jU9B4uAVQa2ZeMb0vOgNACpiO8QE9WCj7m6NT0Hg4AQhSKPvtkmZHdwBIB5euyzXp7NIMeyq6BY2BE4Ageel9euaxnwAwZibN9wE9OLfXj4xuQWPgBCBQoez/Jent0R0AUoXvE8CwcAIQqMn1EUl8/SeAJDVJ+phP0oriUn9FdAzqFwMg0I1t9nu5Ph/dASCVXud53Vvs84XRIahP3AIIdsJy33XcWv1c0j7RLQBSiu8TwFZwAhBs6GtWL4zuAJBiz3yfwMOFZX5MdArqBycA9eCZhwP1S3pjdAqAVOP7BPAPnADUAzMfrOjd4tcCAVSXyXTuxCbdU+x1nkaacQyAOrFklq1y6avRHQAywHSgm+4u9PqFHR3OdSCjuAVQR06/zXdb36yfSnpBdAuAbDCpTzktKM2030W3oLZYfnXk+mPtb5I+FN0BIDtcavGKVrX3+qnRLagtTgDqjbsVylou0xHRKQAy5+sbdtZ7h347CSnHCUC9MXN3vUMSn9AFUGtvb16nBwt9/vroEFQfJwB1qlD2Dkkfi+4AkEkDMn1u8h76yFXTbGN0DKqDE4A6ZWv0aZNWRXcAyKQmuS5cvVrL23v9ldExqA4GQJ0qnWQblNM7JPFtXgBimA410wPFXj8vOgXJ4xZAnSuU/fOSzo/uAJBxpiXNeS28YYb9NToFyeAEoM6tX6cPu/Sr6A4AGeeas3FAq4plf1N0CpLBCUADaO/zFnP1in9eAOK5XFfs0qwLr55h66JjMHpcUBpEoc+/KNc50R0AIEku/UTS6V2tdl90C0aHWwANYpe83s9vBQCoFybtb9IPCmXv4PsEGhMnAA1k7jI/KFfR3ZLGRbcAwD+Y7mga1IIbZ9lvolMwfKy2BtI90+6V9InoDgDYjOvogZweau/1edEpGD4GQIOZukKfNtN3ozsAYAu7m+m6Qp8vPu1WnxQdgx3jFkADKvb4Sz2nByTtGt0CAFvx60pFb+meZfywUscYAA2q2OfvcNfXojsAYBsGZbp08h7q4PsE6hMDoIG1l/1ak+ZHdwDAdqy0vOaVjrafRYdgc3wGoIFNqOisod/FBYB6Nc0HdV+x18+TOz901hH+YTS4OT0+NZ/TDyRNiG4BgO0xqWdwUG/rnm1/iG4BJwANb8ksW+XSe6M7AGBHXJqVy+v+9h4/ProFnACkRqHs10h6S3QHAAyHS9dNqOis62bZ09EtWcUJQErsXNHZfB4AQKMwaf7anFYWe/zg6Jas4gQgRYY+D3C3pF2iWwBgmDaY9DGt0WdLJ9lgdEyWMABSpr3PTzRXt/hnC6Cx3J3Paf6imfar6JCs4BZAynS12E1yfTK6AwBG6PDBiu4t9vnC6JCs4KfENHK3QlmLZSpEpwDAiJlKNqAzS7NtdXRKmnECkEZmvmGC3i7Xw9EpADBirmIlr/sLZT8qOiXNOAFIsfZef6WZfihpj+gWABgFl+uKpwf0wduPtfXRMWnDAEi5wjI/RhXdIikf3QIAo3SfmeaVWuzH0SFpwi2AlOucabfLdE50BwCMwWvddU+h1y/s6HCuWwnhBCAjCmX/P+KRwQAanavcJC24sc1+H53S6FhSGTF1hS6Q1B3dAQBjYmodMN1fKPubo1MaHScAGVK8y3f2p7VM0uHRLQAwVi5dl2vS2aUZ9lR0SyNiAGTMqf0+ZeOA7pL0yugWAEjAoxXX/O42WxEd0mgYABl08jJ/+WBFd0vaK7oFABIwINPnJu+hj1w1zTZGxzQKBkBGze31I3OmXkkTolsAIBGuu8w1rzTLHo1OaQR8CDCjuttshZveLImHawBIB9MRntMDfJ/A8HACkHHFXp/jpsWSmqJbACApJnUNmN61pMUei26pV5wAZFypzZbIdZYkj24BgKS41J53PVDs8aOjW+oVAwDqbLOvSfpgdAcAJOxFnlNve9nPjw6pRwwASJI6W+0/XfpUdAcAJCxv0ucZAc/HZwCwmULZL5f0nugOAEjYoElHlVpteXRIveAEAJvpbNF5Ln0xugMAEpaX9JXiYuebUYcwALA5M+9q0bmSrohOAYAkuTTVJ+m46I56wQDA85l5Z4vOc9Nl0SkAkLDTogPqBQMAW2fmXTN1PiMAQMpMjw6oFwwAbJuZd7XYe126JDoFABKyT3Gxj4uOqAcMAOxQV6tdLNPnojsAIAE5TdI+0RH1gAGAYelssffLdVF0BwCM1fqdtSa6oR4wADBsnW12qT/z2OBKdAsAjNLqm6fbk9ER9YABgBHparOvmuk0SRuiWwBgFB6KDqgXDACMWKnFFtkzXyX8dHQLAIyEm7qjG+oFAwCjUmqxpcqpTca9NAAN44nBvK6NjqgXDACMWudMu8tcb5Trt9EtALAjbvroTTPs8eiOesEAwJiUWu2hJul1ku6LbgGA7fjvVy3ne042xbcBIhHFft/FB3SDxHO2AdQZ0x3r1+r4W463v0en1BNOAJCI0gx7ytboRPElQgDqh0u6YvIems3F//k4AUDiin2+0F1fktQU3QIgs/7sFb2za5bdEh1SrxgAqIpin8921yJJu0W3AMgWk3oGB/W27tn2h+iWesYAQNUUe/01lZyWmOsl0S0AMuFpmS7obLEro0MaAQMAVTWnz/fMV3SDTK3RLQBSbaXlNa90tP0sOqRR8CFAVNWSFnvMHtcxMl2qZz6QAwBJqsh1ua3RkVz8R4YTANRMsc9Pdtd/SZoY3QIgFX5dqegt3bPsu9EhjYgTANRMqcUWuekISY9EtwBocKbSuPV6LRf/0eMEADU3p8/3bHJd79Ks6BYADca0xl1ndrXa4uiURscAQAx3K5Z1rps+K6k5OgdAAzDdUcnrrd0zjO8fSQC3ABDDzEttdlnFdKSkR6NzANS1jZI+PnW5Wrn4J4cTAIQrln13N/1fuYrRLQDqi0s/kXR6V6vxhWMJYwCgbgw9QvhySeOjWwCEc5f+74Z1Op/n+FcHAwB1pdjjB3tON0p6RXQLgDB/cOltXa3WEx2SZnwGAHWlNMvusYl6tZ45CeDBQUDWmJY0N+nVXPyrjxMA1K1in7d6RV+Xad/oFgBVt9ZcF5fa7LLokKxgAKCuFcu+e0X6jEkLo1sAVInrhy7N62qzX0SnZAkDAA2h2OcFd31F0pToFgCJGZDpc5P30EeummYbo2OyhgGAhlHs9300qKvcdXx0C4CxcelXOdP8UovdHd2SVQwANJz2Hj/ecvqKpBdFtwAYOZeu27izzrl5uj0Z3ZJlDAA0pBP7fY+mjfq4TO8Wv80CNIrH3XV2V5vdEB0CBgAaXLHs0126UtIB0S0AtmuZ5fTW0kz7XXQInsFPTmhopVZbPnmSXiPXRZLWR/cAeJ51cl00dYXauPjXF04AkBonl33/Qekrkt4Y3QJAkvTgYEWnL5llq6JD8HwMAKROe48fr7wuN9dLoluAjOI5/g2AAYBUKt7lO/tTOlemD0vaJboHyJA/Kqe3d86026NDsH0MAKRacZm/qFLRf5g0T/z7DlSVSV0DpnctabHHoluwY/yBiExo7/HXWU6XSXpddAuQQk+a6f2lFrsqOgTDx28BIBO6ZtkPbI2OlOsMuX4b3QOkhusuq+jfuPg3Hk4AkDnFxT5Ok7XAXZ+QtHd0D9CgeI5/g2MAILOK/b6Lb9Q5Mv27pN2ie4AG8mjFNb+7zVZEh2D0GADIvFP7fcrGQb1frvdKGh/dA9Qzl67LNens0gx7KroFY8MAAIacvMxfPujqkOtUSfnoHqDO/EXSGZ2t9u3oECSDAQBsodjjL3XTe2V6lzgRACRXuUlacGOb/T46BclhAADbUCz7fu66QKYzJO0c3QMEWCdXx9S79NmODqtExyBZDABgB+b0+N75nM6WdL74sCAywqRVFdPpXS32YHQLqoMBAAxT8Tbfy8fpvZLOkmtSdA9QJRW5/tMe10dKJ9mG6BhUDwMAGKEF/b7TUwM6SdKFkg6I7gGS4tJv3PTW7hbrj25B9TEAgNFyt/Zlmmmu8yS9Sfz3hEZmKtmAzizNttXRKagN/sACEnByn//zYEXn8IFBNKC/mekDPMo3exgAQILm9Pje+bzeJdc7Je0X3QNsj5m+O2h6S/dM+3V0C2qPAQBUQUeH5x6arqNNWijXiZKao5uATQxI+pSt0SdKJ9lgdAxiMACAKiv2+z6+UW910xkmvTy6B5n3U6toXmmW3RMdglgMAKCGij1+cCWnhSbNF58VQI25dN2Eis66bpY9Hd2CeAwAIMCJ/b5H04BOMGm+S0dLykU3IdX+Yq53ltrs5ugQ1A8GABBsbr/vm9+odpmKLh0Z3YN0MalncFBv655tf4huQX1hAAB1pNjnB7jrJJfm8XkBjNFac11catXlMvPoGNQfBgBQj9xtbllH5EwnujSHMYARWml5zSsdbT+LDkH9YgAADaC9z1+Wq+j4odsER4j/drF1Fbm+aI/rAzzHHzvCHyJAgxn6dsLZkoqS2iSNC05Cffgfc72l1GZ3RoegMTAAgAZ22q0+af14tZqpVa428fTBbDJ901zvLrXaE9EpaBwMACBF2vv8ZTmpxaWWoUGwe3QTquoJd727q82+GR2CxsMAAFJq4UpvXrNaR3hObaqoRaaDJDVFdyEZJvXnK3rrjbPsN9EtaEwMACAj5vf4xHU5vdZdR8o0XaYj5ZoU3YUR2yjp0zzHH2PFAAAyqrjY85Up+tdcRUdWXNNler25XhLdhW1z6See07zumXZvdAsaHwMAwD/MXeYvzlV0sEsHmXSwpIMk7R3dBbmkL9pEXVg6wtZGxyAdGAAAtuuUXn/hRtfBltPBMh0g14GSDojuypA/y/SOzha7NToE6cIAADBihT6/WK5PR3eknUk3NTXpjBtm2F+jW5A+fCIYwMhVtIEfH6rqmef4t9ll0SFILwYAANQRk36UM81b1Go/j25BuvEd5ABQHwZlulRrNH1RCxd/VB8nAAAQ79cyze9sse9FhyA7OAEAgEim0kCTXsPFH7XGCQAAxHjcpHNKLfat6BBkEwMAAGpvWaVJC7pn2G+jQ5Bd3AIAgNpZL9dFU1eojYs/onECAAC18WNznV5qs/s7o0sAcQIAANXmLl21fp0OKbXZ/dExwLM4AQCA6vmTu97e1Wa3RYcAW+IEAACqo3vQdCAXf9QrTgAAIFlPmun9pRa7KjoE2B4GAAAkxfVDl+Z1ttovolOAHeEWAACM3YBMl06erOldbVz80Rg4AQCAsXm04prf3WorokOAkeAEAABGyaXrrEmv7m7j4o/GwwkAAIzcX910RleL3RQdAowWAwAARsCkPuW0oHOm/S66BRgLbgEAwPCsk+uiA1doVomLP1KAEwAA2BHXw4MVnb5ktj3Ac/yRFpwAAMC2uVyXPz2gg5fMtgeiY4AkcQIAAFv3RzO9rdRqS6NDgGrgBAAAtuTqtEEdWGrh4o/04gQAAJ7zNzN9oNTKc/yRfgwAAJBk0vdzOc1bNNN+Fd0C1AK3AABk3YCkj2uNpnPxR5ZwAgAgyx5RTvM7Z9pd0SFArXECACCThp7j/29c/JFVnAAAyJq/mOudnW12c3QIEIkTAABZ0tvkek2Jiz/ACQCATFhrrotLrbpcZh4dA9QDBgCAtHvIpNNLbfZQdAhQT7gFACCtXK7LbY2mlVq5+ANb4gQAQBr9j7neUmqzO6NDgHrFCQCAdDGVxq3Xa7j4A9vHCQCAtPibud5darXrokOARsAAAJAGd7tpXmerPRIdAjQKbgEAaGQDkj5ua/T6rhYu/sBIcAIAoCG59BPPaV73TLs3ugVoRJwAAGg07tJVEyo6hIs/MHqcAABoJH+W6R1dLXZrdAjQ6DgBADBiLq0LeNtv20ZN7eTiDySCEwAAI2Y5PabaPVH/aTO9r9RiV9XsHYEMYAAAGDGTHqzF9d+kH+VM8xa12M9r8HZApnALAMCIHbhcP5X0uyq+xaCkT06apCO5+APVYdEBABpToc8/Jde/V+GlH6245ne32YoqvDaAIZwAABiVQenzkh5P9EVd14zfqNdw8QeqjxMAAKPWXvaTTFqUwEs9IdM5nS12fQKvBWAYOAEAMGpdrbZYrv8Y48ssqzRpKhd/oLYYAADGpLPN/t2kD+qZD+6NxHozXTB1hdq6Z9hvq9EGYNu4BQAgEe29Ps1Ml0s6fId/set2a9L5paPtZ9UvA7A1DAAAiSr2+eGVigpmeoOkl0iaIukxSb+U607P6fquFnswNBKA/j9DX5Wo590QTwAAAABJRU5ErkJggg==;rotation=0;" vertex="1" parent="1">
          <mxGeometry x="790" y="717" width="30" height="30" as="geometry" />
        </mxCell>
        <mxCell id="8N-V9I-CrBm6m9oQKu6N-153" value="" style="shape=image;verticalLabelPosition=bottom;labelBackgroundColor=default;verticalAlign=top;aspect=fixed;imageAspect=0;image=data:image/png,iVBORw0KGgoAAAANSUhEUgAAAgAAAAIACAYAAAD0eNT6AAAABHNCSVQICAgIfAhkiAAAAAlwSFlzAAAOxAAADsQBlSsOGwAAABl0RVh0U29mdHdhcmUAd3d3Lmlua3NjYXBlLm9yZ5vuPBoAACAASURBVHic7d15gFx1ma/x71vVnUDClhAYVC7uMwNERyEgS1RCujsBAUm6ijXRuBBZFERUYNza6zKgo1fADa6jLCIk1d1BYCDd1aFFE3AJe3AXruO+kICA2brrvX/QSBKy9HKq3qpzns/fUPUokPPt36k+ZQKQiGK/7+IDOtNM89x1oKS1ZvqOmy7pnGl3RfcBwKYsOgBodMXFPq4yWWea60OS9t7KX1Ix0wdKLfb5WrcBwLYwAIBRKi72fGWy5pnr45JevIO/3GU6obPFbq1FGwDsSC46AGg47tbe5yf6JD1orqu144u/JJm7PlPlMgAYNk4AgBEo9vjRntOnJb1uNH+/5zW162h7OOEsABixpugAoBG09/o0kz7tptaxvI5V9FJJDAAA4RgAwHaccru/ZKBZn5GroAROzMz1eAJZADBmDABgK+b3+MS1OV00IL1frp0Setm/TmzSyoReCwDGhAEAbMrdin06da3rUkn7JvvS+sjVM2xdkq8JAKPFhwCBIUP3+S+T6YjEX9z1ic42+2jirwsAo8QAQObN6fM98xV9VKZzJOUTfvmnzPTOUostSvh1AWBMGADIrIUrvXnNap3tpo9L2j3p13fp55WK2pfMslVJvzYAjBUDAJlU7PPWiuuLJv1zVd7AVNqwk95x83R7siqvDwBjxABAppx2q09aP16XmHSGqvPv/4BcH+5s1Wdk5lV4fQBIBAMAmVHo9aJMX5K0V5Xe4s9W0amlWXZHlV4fABLDAEDqtff5y8z1FUltVXyb71UGdXL3bPtDFd8DABLDAEBqLVzpzWvW6AKXPipp52q9j7s+/1izLvzODBuo1nsAQNIYAEil9rK/1qSrJE2r4tsMuOs9XW321Sq+BwBUBU8CRKoU+30X36hPSXq3qvt114+Zq72zze6s4nsAQNVwAoDUmFv2w0y6pmq/2vecX3pFx3fNsp9W+X0AoGo4AUDDW7jSm1ev0YckfVjJP8lvMyat0EbN6TzW/lLN9wGAauMEAA2t/Q4/MDeoa106qAZv93Vbo7NKJ9mGGrwXAFQVAwCNyd2KZZ3rpkslja/2u0n6352t1lHl9wGAmmEAoOEUe/ylyutqd72hBm/3tJvmdbXYTTV4LwCoGQYAGsrQ0/yukrRH1d/MtKZS0fHdbbai6u8FADXGAEBDKC71ycrrv1w6sUZv+fvBimbxTX4A0orfAkDda+/1aW5aJOllNXrLR21QbUtm2y9r9H4AUHPVfFAKMDbuVuz188y0QjW6+Ju0qsk1vcTFH0DKcQsAdalY9t3d9TWZCrV6TzN9V64TSq32RK3eEwCicAsAdWdunx/irkUyvbSGb3urJuik0hG2tobvCQBhuAWA+jF05J9zLZdqePE3fXPyJM3l4g8gS7gFgLpQXOqTPa9rJB1X47f+ameLzpaZ1/h9ASAUAwDh5i7zg3IVLZG0Xy3f16Wrulp0Jhd/AFnELQCEai/7SbmKvqcaX/wlff1VK3QWF38AWcUAQAx3K/T6hSbdKGlCjd/9G1NX6IyODqvU+H0BoG5wCwA1d8Jy33X8Wl1bw6f6/YObrn7Vcr2Diz+ArGMAoKaKS/0VntNNMh1Y8zd33WiPa17pJBus+XsDQJ1hAKBmCr3eppxulGtSrd/bpUWPNWned2bYQK3fGwDqEZ8BQE0Uev0CmW6LuPjLdWNujU7n4g8Az+EEAFW1cKU3P/a4rjLXgqCEXluj40sn2Yag9weAusQAQNUU+30X36jFMh0TlLDSmjSjNMOeCnp/AKhbDABUxdyl/oJ8Xre6dFBQwi+bTdNvaLE/Bb0/ANS1fHQA0qfY5weYqV/S/kEJv28a0FE3zrLfBb0/ANQ9PgSIRBX7/HB33SnpxUEJT5jrTTceY/8v6P0BoCEwAJCYQtnnumuZpClBCWtlOr7UZvcHvT8ANAwGABLRXvbzJZUk7RyUMGiuUzpb7HtB7w8ADaUpOgANzt0KffqcpPNDM0zv62y1myMbAKCR8FsAGLXiYs/7JF0l6e3BKd/obLXoBgBoKJwAYFSGLv5fl/SW4JTltkZnBjcAQMPhBAAjVlzs43ySbpA0N7LDTf8vt0GHlo61v0R2AEAj4gQAI3LMbT7em7VY0gnBKU/mXCdw8QeA0WEAYNiOv8Un7NSsb7vUEpxSMde8Ups9FNwBAA2LAYBhKfb7LhrQzS7NiG6R6eISn/gHgDHhMwDYoeJSn6y8lrp0SHSLpOs7W21edAQANDpOALBdc/p8T0nL3PVv0S2SfrxzRe+KjgCANODLgLBNp9/mu3lOvYHf6LepdYODOmbRbPtNdAgApAGPAsZWHX+LT9gwTrfUybG/zHXWktn2QHQHAKQFtwDwPMXFPs53Upe73hDdMuQbpTa7OjoCANKEEwBsZuFKb/ZJ6pI0O7pFkuR6eP06vTs6AwDShs8A4B+Kiz3/d+mbFvyEv008bTm1LTnGfh8dAgBpwwkAJEkdHZ7zybrapJOjWzZxdqnFfhwdAQBpxAkAJHebMqir5FoQnbKJaztb7ePREQCQVpwAQIVl+qxc74zueJZLvzHp3OgOAEgzBkDGFct+llwXRHdswnOmhaVWeyI6BADSjAGQYcVeP8GlK6I7NmP6cqnFlkZnAEDaMQAyqrjMD3XTDaqvz4E8YnldFB0BAFnAg4AyqLjUX+EV3SppQnTLJiqVit7WPcOeig4BgCzgBCBjirf5Xp7X7ZL2im7ZjOmz3bPsu9EZAJAVDIAMmd/jE71Zt0l6RXTLpkxa9fQGfSy6AwCyhAGQEcXFnl+b0/WSpkW3bKEi08Lbj7X10SEAkCUMgIyoTNIVkt4c3bEll75WarG7ozsAIGsYABlQ7PUFJp0V3bEVfx3XpA9FRwBAFjEAUq6wzI9w01ejO7bGXO+7YYb9NboDALLIogNQPaf0+gsHTD+S9MLoli2Z6bulmTpKZh7dAgBZxAlASi3o950GTTepDi/+kjbkXGdy8QeAODwIKKWeGtCXJR0S3bENn1nUaj+JjgCALOMEIIWKff4+SW+L7tiGR2yiPh0dAQBZxwBImfY+b3HXpdEd22KmC0tH2NroDgDIOj4EmCLtff4yc/1I0uTolq0x6fulFh3BvX8AiMcJQEosXOnNOdf1qtOL/5APcPEHgPrAhwBTYvUafUbSYdEd22JSV6nVlkd3AACewQlACrT3+rGSzovu2I6NFdfF0REAgOcwABrc3H7f10zXqL4/z/HVrjb7RXQEAOA5DIAGdlS/N+UGdIOkKdEt2/Fks+lT0REAgM0xABrYlEF9XNL06I7tcl1yQ4v9KToDALA5BkCDmtvnM+S6MLpjBx7bMEFXREcAAJ6PAdCA5vT43kO/8pePbtkek/7PzdPtyegOAMDzMQAajbs15XStpBdEp+zA45K+GB0BANg6BkCDaS/rXS7Niu4YhstKrfZEdAQAYOsYAA3klNv9JWb6THTHMPxt3HpdFh0BANg2BkCD6Ojw3ECTviFp1+iWHXHpim8dZ2uiOwAA28YAaBAPHanzJB0V3TEMT+c28tM/ANQ7BkADKN7h/2JqmIfpfKV0rP0lOgIAsH0MgDrX0eE5H9TXJO0c3TIMg1bRl6MjAAA7xgCoc6uO0EWq96f9Pcu1pDTLHo3OAADsGAOgjhXL/iqZPhrdMVwV56l/ANAoGAB1qqPDcy5dKWl8dMsw3d89y74bHQEAGB4GQJ1aNV1nSDo8umMELo8OAAAMHwOgDp3a71Pk+mR0xwj8ZZcm3RAdAQAYPgZAHdowoM9LmhLdMQJXXj3D1kVHAACGjwFQZ+b2+QyT5kV3jMBgpUlXRkcAAEaGAVBHiot9nLm+JMmiW4bLpJ7uGfbb6A4AwMgwAOqIT9IHTdo/umMkKtI10Q0AgJFjANSJucv8xZIuiu4YEdOaXZt0c3QGAGDkGAB1Iv/MI3QnRneMiOsGPvwHAI2JAVAH2nv9WJeOje4YqYrp6ugGAMDoNMyHzdKquNjzmqT7XZoa3TJCP+5stQOjIwAAo8MJQLDKHjqjAS/+MvHTPwA0MgZAoNNv893M1BHdMQqVwUF9MzoCADB6DIBA65p1saR/iu4YhRXds+0P0REAgNFjAASZ2+/7mnRudMcodUcHAADGhgEQxAZ0qaQJ0R2jYRV9O7oBADA2/BZAgOIyP9Qr+r4a8///lZ2tdkh0BABgbDgBCOAV/aca8+IvuZZEJwAAxo4BUGPtZZ8l6fXRHaPlzv1/AEgDBkCNmfTh6IZRcz3cNct+Gp0BABg7BkANFft8tqTp0R1jwBf/AEBKMABqyL0hH/rzDyb1RDcAAJLBAKiR9l4/VtLrojvG4OmnBvT96AgAQDIYADVi0seiG8bCpDtvP9bWR3cAAJLBAKiBQp8fJ9Oh0R1jUZH6ohsAAMlhANSAuT4a3TBWlYrK0Q0AgOQwAKqsvcePd6nRn5z3hyVtejg6AgCQHAZAlVlOF0c3jJVLfTLz6A4AQHIYAFVU7PPDJR0e3TFWOdcd0Q0AgGQxAKrIXe+PbkhEk+6OTgAAJKsxv5CmARR7/KWe0y8k5aNbxujxzhZN5hYAAKQLJwBV4nldoMa/+EvS97n4A0D6MACqoLjUJ8u1ILojIT+IDgAAJI8BUAXepHMkTYzuSIIZj/8FgDRiACTsmNt8vFxnR3ckxAekH0VHAACSxwBI2MQmzZe0T3RHQn6+pMUei44AACSPAZA003uiExK0MjoAAFAdDIAEDT3459XRHUkxaVV0AwCgOhgACXLXGdENSXJjAABAWjEAElIs++6SToruSJIN8gVAAJBWDIDkzFdKfvVvyNMH3q1fR0cAAKqDAZAQl94R3ZAo18MdHVaJzgAAVAcDIAFDH/57TXRHoozjfwBIMwZAAtL24T9JkjMAACDNGABjNPThv5OjO5Jmpp9GNwAAqocBMEZuOl3ShOiOpA1U+AAgAKQZA2CsXPOiE6phcCIDAADSjAEwBnOX+YslHRbdUQWrb55uT0ZHAACqhwEwBrlBnS7JojuqgJ/+ASDlGABjYKZToxuq5H+iAwAA1cUAGKX2Pn+1S1OjO6rCOQEAgLRjAIyWp/anf1mOAQAAaccAGA13k+mU6Ixqcen30Q0AgOpiAIzC3LKOMNdLojuqxaW/RjcAAKqLATAKuVx6j/8lSa7HohMAANXFABihjg7PyTU3uqOamge0JroBAFBdDIAReuhwHSLpBdEd1TS4E7cAACDtGAAjldPx0QlVtqE0w56KjgAAVBcDYIRMqR8A3P8HgAxgAIxAsez7SXp1dEc1GQMAADKBATACFU/9T/+SxPE/AGQAA2AETHpzdEO1ubQ+ugEAUH0MgGEq9vsuMr0huqMGGAAAkAEMgGHyjTpG0vjojhrYEB0AAKg+BsDwvSk6oEYYAACQAQyA4TK1RCfUCLcAACADGADDULzD/0XSi6I7asI5AQCALGAADENlQDOiG2rGGAAAkAUMgGGwnI6ObgAAIEkMgB1xN7neGJ1RK25qjm4AAFQfA2AH2pfpVZL2ju6oFXMGAABkAQNgB3KVDN3/fwYDAAAygAGwA24ZGwDcAgCATGAAbEdxsecz8vjf53ALAAAygQGwHZVJerVck6I7amxcdAAAoPoYANvjel10QgAGAABkAANgO8x0aHRDgN2jAwAA1ccA2B7P3gBwy9wtDwDIJAbANhT7fReZ/jW6o9Yse595AIBMYgBsgw9omqR8dEeA3YqLPYv/uwEgUxgA22DSIdENQUy78TkAAEg7BsA2uGV2ACjXzG0AAEg7BsC2ZPADgM8aGGQAAEDaMQC2Yk6P7y3pxdEdUXI5TYluAABUFwNgK5ryOii6IZJXtG90AwCguhgAW+EVHRjdEMlz+l/RDQCA6mIAbIVL+0c3RDLnBAAA0o4BsBVmOiC6IZRzAgAAaccA2LpMnwDIGAAAkHYMgC3M7fd9Je0R3RGMAQAAKccA2EJ+MOM//T9j4mm3Os8CAIAUYwBswT3bvwHwrHU76RXRDQCA6mEAPF+2PwA4JF/J3jchAkCWMAC2YAwASfwqJACkHQNgCy69MrqhHpgxAAAgzRgAmyje5TtL2iu6ox64uAUAAGnGANjUOu0nyaIz6sTLF6705ugIAEB1MAA24QPZ/QbArWh+7DG9PDoCAFAdDIDN7RcdUE/M9KroBgBAdTAANmWcAGwmp4OjEwAA1cEA2ISLAbAZ17ToBABAdTAANpHjBGBL0+TOhyIBIIUYAJuo8BmALe3eXuaRwACQRgyAIcXFnjfXi6I76hC3AQAghRgAz9pLe0ni996fjwEAACnEABhSce0Z3VCPzHRIdAMAIHkMgCE2yCOAt+HQoUckAwBShAEwxMUJwDaMH/y7DouOAAAkiwEwxExTohvqVc71xugGAECyGABDzBkA22KmGdENAIBkMQCGcAtg29x12PG3+IToDgBAchgAz2EAbNu4ncbxOQAASBMGwHMYANvhOW4DAECaMACe5fwa4HaZjolOAAAkhwEwxE27RjfUNddBxWXOo5IBICUYAENM2im6oc5ZpaJjoyMAAMlgADyHp93tgEnHRTcAAJLBAHgOJwA71sqvAwJAOjAAnsMJwI7tPG68joqOAACMHQNAktxN0rjojEZgpuOjGwAAY8cAkFS8WztJsuiOBtF+VL83RUcAAMaGASCpeTX3/0dgr70GeSgQADQ6BoCkyjju/4+Eu06NbgAAjA0DQNLGHCcAI9S+oN/5/wwAGhgDQJIqykcnNJjdnhzU7OgIAMDoMQAkKafB6IRGY9wGAICGxgCQ5MYAGIXjTljufH8CADQoBoCkcQOqRDc0oAnNa3VKdAQAYHQYAJIGmxgAo5GTzohuAACMDgNA4jMAo+TSIXOX+UHRHQCAkWMASNJaBsBoWUXvjG4AAIwcA0DSwDhuAYyWSafN7/GJ0R0AgJFhAEjyPCcAY7D72pxOio4AAIwMA0BSpZkBMCauM6MTAAAjwwCQNP73Wh/d0NBMhxbLPj06AwAwfAwASaWTbIOkddEdDe6C6AAAwPAxAJ7zt+iARubSCe09/q/RHQCA4WEAPIcBMDY5y+k90REAgOFhAAwxBkASFpza71OiIwAAO8YAGOIMgCRM2DjAbwQAQCNgADyHAZCM8/iWQACofwyAZxkDICFTxv1dZ0dHAAC2jwHwLGcAJMb0AU4BAKC+MQCG8BmARO05bp3eHR0BANg2BsCQnLQ6uiFVXBdwCgAA9YsBMKTi+kN0Q8rsOe7vPBcAAOoVA2CIiQGQONMFp93qk6IzAADPxwAYYjkGQBVM3jBeH4mOAAA8HwNgSPM6BkCVvLu9118ZHQEA2BwDYMi3jrM1ktZGd6RQs5kuiY4AAGyOAbAJN/0puiGl5hZ6fWZ0BADgOQyATRi/CVA9ps92dDj/vgFAneAP5M0xAKrntQ9N1/zoCADAMxgAm/tjdECametzfF0wANQHBsCmXP8TnZBye24c1H9ERwAAGACbsZx+Fd2Qeq53zO31I6MzACDrGACbquiX0QkZYDnpyoUrvTk6BACyjAGwqWb9UpJHZ6Se6cDVq/W+6AwAyDKLDqg3hbL/QdI+0R0ZsNZNU7ta7JHoEADIIk4Anu8X0QEZsbO5vhQdAQBZxQB4Pj4HUDuz23v91OgIAMgiBsAWTPwmQC2Z6cvFsu8X3QEAWcMA2JJxAlBje8h0HY8JBoDa4g/dLQwanwGoNXe94eHpem90BwBkCQNgC/mcfi6pEt2RNe76dLHsr4ruAICsYABsoTTDnhKfA4gw3l03LOj3naJDACALGABbY7o/OiGTTAc+NahPRmcAQBYwALbCXA9EN2SW6/xijx8dnQEAaccA2Ao3BkCgnOf0rbn9vm90CACkGQNgKyp5bgEE+6f8gErH3Objo0MAIK0YAFvRPcN+K+mv0R1Z5tJhE5v1+egOAEgrBsC2mB6MToDObi/726MjACCNGADb4BVuA9QDk77U3uvTojsAIG0YANtgfBCwXuxkpq5T+31KdAgApAkDYBs8r3uiG/AP+20c0PXFxZ6PDgGAtGAAbEPXDP1Y0uroDvxDW2WSvhwdAQBpwQDYFjOXdHd0Bp5j0sJCr18Y3QEAadAUHVDXTCvkelN0BjZh+o9i2X9TarVvRadg64qLPa/JOtSl18v1Upn2lOsxSb9y13e6WnXP0MAGEMiiA+rZ3B5/Qy6nO6M78DwbrKJjSrPsjugQPKe42Mf5JJ0t6XxJ+23nL/2ppM9MXaFrOjqMb94EgjAAtqN4l+/sT+txSeOiW/A8T5j0+lKrPRQdAmlOj0/N5bTYpP1H8LfdnTctWNRiP69aGIBt4jMA21E6wtaadG90B7Zqd3fdxncGxCv2+hvzOd09wou/JB0+6Lq32OcLqxIGYLsYADvgphXRDdgG0775Ad1+2q0+KTolq04u+/5uulXSLqN8iYnuurJQ9m8Xb/O9kmwDsH0MgB2wCgOgnrk0dcN49Z7Y73tEt2RNR4fnKtI3NfqL/6ZO8GY9WFjmxyTwWgCGgQGwA0053RXdgB2a1rRRPcWy7x4dkiWrjtQ8lw5K8CX3UUX/XejzLxbv8p0TfF0AW8EA2IEbWuxPeuZTy6hnpkMlLT39Nt8tOiUrTDqrKi/rOqfytO5pL/trq/D6AIYwAIbBpb7oBuyYS4etb9bSE5b7rtEtaVfs931cOqxar2/S/iZ9v9DrF3Z0OH9OAVXAf1jDkHOVoxswbIePX6vbi/2exH1pbIMPqhbf0DhOpktWHak7imXf3nMFAIwCA2AY1k9Qv6SN0R0YHpeO1AAnAVX2ohq+1xtdeqjY6/Nr+J5A6jEAhuHm6fakST+M7sDwuXTkuLXqmdPne0a3pJFJE2v8lru56dr2sl/Phz2BZDAAhonPATSkw3Ou73F8nDyvxDxF1KTTXHqwUPajIt4fSBMGwDAZA6AhmbS/S9+fs9T/LboFidlP0h2FXr+suNh5TDcwSgyAYZo0ST+Q9LfoDozKC/JN6i/0+eujQ5AYk+lcTdLdJ5d9pI8gBiAGwLBdNc02ytUb3YFRck2Sq1zo9WJ0CpLj0kGD0r3FXj9P7ny5GTACDIARMOnm6AaMyXiZbmjv9TOjQ5Condz0hUKflp7S6y+MjgEaBQNgJCr6b0kD0RkYk7yZvtJe9isXrvTm6Bgkqm3AdH+h7G+ODgEaAQNgBEqzbbXElwOlgUkLV69ReU6P7x3dgkTtJemm9rJfy8OggO1jAIyQGbcBUuSNuZxWFnv84OgQJMuk+T6gB+f2+pHRLUC9YgCMUM707egGJMek/+U5fafY54XoFiTupTnTdwpl7ygu9nx0DFBvGAAjtGim/Uquh6M7kKhd3LW40OeX8MUzqdMk6WOapOXFpf6K6BignvCH3Si46aboBiTO5Lpw1ZG6ubjUJ0fHIFkuHeZ53VMo+1uiW4B6wQAYDdPi6ARUzZs8r4fbyz4rOgSJ203SNcWyd/IdEQADYFS6WuxBbgOk2j4m3c6jZtPJpfa8a1VhmR8T3QJEYgCMkolTgJQzmc71SVrR3uuvjI5B4vZRRf9d6PXLjrnNx0fHABEYAKOUy+v66AbUxDQz3VPs84XRIUicyXTuxCbdw5dFIYsYAKO0aKb9yqR7oztQE7u668pC2b91Yr/vER2DhJkOzOf1fb5PAFnDABgDNy2KbkBNndo0oJ/wSfJU2slNXyj2qbe4zF8UHQPUAgNgDCrPDACP7kBN7SPpmkLZvz233/eNjkGyXGrxih4olH1udAtQbQyAMeieab+W9N3oDoQ4ITegnxZ6/UKeMpc6e0rqai/7tScs912jY4BqYQCM3dejAxBmokyX+CR9r/0OPzA6BskyaX7zOj1YLPv06BagGhgAY7R+nTolPRHdgVCH26DubS/7J+f3+MToGCTHXC9xqb9Q9o6j+r0pugdIEgNgjG453v4u143RHQg3zqQPrc3p58U+X8htgVRpkvSxKRt5JgTShQGQAHd9I7oBdeOF7rrSJ+lBnjSXMqZDzXR/sdfPi04BksAASEDXLPuBpAejO1BXDlBFtxXLXp7T41OjY5CYCW76QqHPu0/t9ynRMcBYMAAS4tLV0Q2oPy615HO6t1D2y7lgpIhrzsYBPVDo9bboFGC0GAAJyW3UNyWtj+5AXWqW9J6NA3qk0OeXFG/zvaKDkIgXyrS0vc+/sKDfd4qOAUaKAZCQ0rH2F+cLgrB9u8p1oTfr0UKvX3ZKr78wOghjZuY676kB3dNe9tdGxwAjwQBIkOf0hegGNISJMp07YHqkvexX8kTBVDjApB8Uyt7R0eH8uYqGwL+oCeqeaffK9cPoDjSM8SYtzA3ol4Wyf2nuMn9xdBDGpFnSx1ZNV5lRh0bAAEiYSV+MbkDDGS/p7FxFjxTKfkt7n7fwrXQNzHV0bkCrCn1+enQKsD0MgKQ9rkWS/hSdgYaUk3ScucqFPv2k2Ovn8WTBhrW7XN8s9Pni0271SdExwNYwABJWOsk2uPS16A40vH9x0xfW5vT79rJf2d7j/xodhFFwFTeM131ze/wN0SnAlhgAVeBN+qqkgegOpMJuJi20nB4ulP2WYp8X+JWzhvPiXE53tJf9kwtXenN0DPAsBkAVdM+w3/IrgUhYTtJx7io9NaA/tpf9Wj4r0FDyJn1o9RrdVbzD/yU6BpAYANVjulSSR2cglXY3ab65yu19+nWhzy/hotIwpvmg7iv2+nmMN0TjX8AqKvT6bTLxhTCoDdcPZSrlTTcvarGfV/OtCr1+gUz/Wc33yICbBys6Y8ks+3N0CLKJAVBFhbIfJak/ugOZ9Ihct3pOt+y5h+68apptTPLFGQCJ+bNX9M6uWXZLdAiyhwFQZYWy3yXp8OgOZNpqmZbJdatJ3y612hNjfUEGQLJcum5CRWddN8uejm5BdjAAqqzY63Pc1B3dAQwZkOkBVbRC0vKBZpVvI8Y6CQAAE5JJREFUmmGPj/RFGABV8dNKTqd3z7R7o0OQDQyAanO3Qp9WSTogOgXYikFJP3Npubn6rKJlpdm2ekd/EwOgagYkfcrW6BOlk2wwOgbpxgCogWKvL3DTN6I7gGEYNNMqd91j0n2S7l+/sx64ebo9uelfxACoujsrOb21e6b9OjoE6cUAqIGj+r1pyoB+LOmV0S3AKFRc+qVJ95t0X0W6z0xvkOvfo8NS7gmTzi612reiQ5BODIAaKfb6fDddG90BoMGYSjagM4dzawYYCR4EVCuP61su/SQ6A0CDcRU9r/uGfq0YSAwnADXU3uunmonjPACj4XJd8fSAPnj7sbY+OgaNjxOAGnrVXVok6cHoDgANyWQ6d5dmrWzv81dHx6DxcQJQY4VeL8r4oiAAY7JOro6pd+mzHR1WiY5BY2IA1NozzwW4V9JrolMANDjX7dast5dm2B+jU9B4uAVQa2ZeMb0vOgNACpiO8QE9WCj7m6NT0Hg4AQhSKPvtkmZHdwBIB5euyzXp7NIMeyq6BY2BE4Ageel9euaxnwAwZibN9wE9OLfXj4xuQWPgBCBQoez/Jent0R0AUoXvE8CwcAIQqMn1EUl8/SeAJDVJ+phP0oriUn9FdAzqFwMg0I1t9nu5Ph/dASCVXud53Vvs84XRIahP3AIIdsJy33XcWv1c0j7RLQBSiu8TwFZwAhBs6GtWL4zuAJBiz3yfwMOFZX5MdArqBycA9eCZhwP1S3pjdAqAVOP7BPAPnADUAzMfrOjd4tcCAVSXyXTuxCbdU+x1nkaacQyAOrFklq1y6avRHQAywHSgm+4u9PqFHR3OdSCjuAVQR06/zXdb36yfSnpBdAuAbDCpTzktKM2030W3oLZYfnXk+mPtb5I+FN0BIDtcavGKVrX3+qnRLagtTgDqjbsVylou0xHRKQAy5+sbdtZ7h347CSnHCUC9MXN3vUMSn9AFUGtvb16nBwt9/vroEFQfJwB1qlD2Dkkfi+4AkEkDMn1u8h76yFXTbGN0DKqDE4A6ZWv0aZNWRXcAyKQmuS5cvVrL23v9ldExqA4GQJ0qnWQblNM7JPFtXgBimA410wPFXj8vOgXJ4xZAnSuU/fOSzo/uAJBxpiXNeS28YYb9NToFyeAEoM6tX6cPu/Sr6A4AGeeas3FAq4plf1N0CpLBCUADaO/zFnP1in9eAOK5XFfs0qwLr55h66JjMHpcUBpEoc+/KNc50R0AIEku/UTS6V2tdl90C0aHWwANYpe83s9vBQCoFybtb9IPCmXv4PsEGhMnAA1k7jI/KFfR3ZLGRbcAwD+Y7mga1IIbZ9lvolMwfKy2BtI90+6V9InoDgDYjOvogZweau/1edEpGD4GQIOZukKfNtN3ozsAYAu7m+m6Qp8vPu1WnxQdgx3jFkADKvb4Sz2nByTtGt0CAFvx60pFb+meZfywUscYAA2q2OfvcNfXojsAYBsGZbp08h7q4PsE6hMDoIG1l/1ak+ZHdwDAdqy0vOaVjrafRYdgc3wGoIFNqOisod/FBYB6Nc0HdV+x18+TOz901hH+YTS4OT0+NZ/TDyRNiG4BgO0xqWdwUG/rnm1/iG4BJwANb8ksW+XSe6M7AGBHXJqVy+v+9h4/ProFnACkRqHs10h6S3QHAAyHS9dNqOis62bZ09EtWcUJQErsXNHZfB4AQKMwaf7anFYWe/zg6Jas4gQgRYY+D3C3pF2iWwBgmDaY9DGt0WdLJ9lgdEyWMABSpr3PTzRXt/hnC6Cx3J3Paf6imfar6JCs4BZAynS12E1yfTK6AwBG6PDBiu4t9vnC6JCs4KfENHK3QlmLZSpEpwDAiJlKNqAzS7NtdXRKmnECkEZmvmGC3i7Xw9EpADBirmIlr/sLZT8qOiXNOAFIsfZef6WZfihpj+gWABgFl+uKpwf0wduPtfXRMWnDAEi5wjI/RhXdIikf3QIAo3SfmeaVWuzH0SFpwi2AlOucabfLdE50BwCMwWvddU+h1y/s6HCuWwnhBCAjCmX/P+KRwQAanavcJC24sc1+H53S6FhSGTF1hS6Q1B3dAQBjYmodMN1fKPubo1MaHScAGVK8y3f2p7VM0uHRLQAwVi5dl2vS2aUZ9lR0SyNiAGTMqf0+ZeOA7pL0yugWAEjAoxXX/O42WxEd0mgYABl08jJ/+WBFd0vaK7oFABIwINPnJu+hj1w1zTZGxzQKBkBGze31I3OmXkkTolsAIBGuu8w1rzTLHo1OaQR8CDCjuttshZveLImHawBIB9MRntMDfJ/A8HACkHHFXp/jpsWSmqJbACApJnUNmN61pMUei26pV5wAZFypzZbIdZYkj24BgKS41J53PVDs8aOjW+oVAwDqbLOvSfpgdAcAJOxFnlNve9nPjw6pRwwASJI6W+0/XfpUdAcAJCxv0ucZAc/HZwCwmULZL5f0nugOAEjYoElHlVpteXRIveAEAJvpbNF5Ln0xugMAEpaX9JXiYuebUYcwALA5M+9q0bmSrohOAYAkuTTVJ+m46I56wQDA85l5Z4vOc9Nl0SkAkLDTogPqBQMAW2fmXTN1PiMAQMpMjw6oFwwAbJuZd7XYe126JDoFABKyT3Gxj4uOqAcMAOxQV6tdLNPnojsAIAE5TdI+0RH1gAGAYelssffLdVF0BwCM1fqdtSa6oR4wADBsnW12qT/z2OBKdAsAjNLqm6fbk9ER9YABgBHparOvmuk0SRuiWwBgFB6KDqgXDACMWKnFFtkzXyX8dHQLAIyEm7qjG+oFAwCjUmqxpcqpTca9NAAN44nBvK6NjqgXDACMWudMu8tcb5Trt9EtALAjbvroTTPs8eiOesEAwJiUWu2hJul1ku6LbgGA7fjvVy3ne042xbcBIhHFft/FB3SDxHO2AdQZ0x3r1+r4W463v0en1BNOAJCI0gx7ytboRPElQgDqh0u6YvIems3F//k4AUDiin2+0F1fktQU3QIgs/7sFb2za5bdEh1SrxgAqIpin8921yJJu0W3AMgWk3oGB/W27tn2h+iWesYAQNUUe/01lZyWmOsl0S0AMuFpmS7obLEro0MaAQMAVTWnz/fMV3SDTK3RLQBSbaXlNa90tP0sOqRR8CFAVNWSFnvMHtcxMl2qZz6QAwBJqsh1ua3RkVz8R4YTANRMsc9Pdtd/SZoY3QIgFX5dqegt3bPsu9EhjYgTANRMqcUWuekISY9EtwBocKbSuPV6LRf/0eMEADU3p8/3bHJd79Ks6BYADca0xl1ndrXa4uiURscAQAx3K5Z1rps+K6k5OgdAAzDdUcnrrd0zjO8fSQC3ABDDzEttdlnFdKSkR6NzANS1jZI+PnW5Wrn4J4cTAIQrln13N/1fuYrRLQDqi0s/kXR6V6vxhWMJYwCgbgw9QvhySeOjWwCEc5f+74Z1Op/n+FcHAwB1pdjjB3tON0p6RXQLgDB/cOltXa3WEx2SZnwGAHWlNMvusYl6tZ45CeDBQUDWmJY0N+nVXPyrjxMA1K1in7d6RV+Xad/oFgBVt9ZcF5fa7LLokKxgAKCuFcu+e0X6jEkLo1sAVInrhy7N62qzX0SnZAkDAA2h2OcFd31F0pToFgCJGZDpc5P30EeummYbo2OyhgGAhlHs9300qKvcdXx0C4CxcelXOdP8UovdHd2SVQwANJz2Hj/ecvqKpBdFtwAYOZeu27izzrl5uj0Z3ZJlDAA0pBP7fY+mjfq4TO8Wv80CNIrH3XV2V5vdEB0CBgAaXLHs0126UtIB0S0AtmuZ5fTW0kz7XXQInsFPTmhopVZbPnmSXiPXRZLWR/cAeJ51cl00dYXauPjXF04AkBonl33/Qekrkt4Y3QJAkvTgYEWnL5llq6JD8HwMAKROe48fr7wuN9dLoluAjOI5/g2AAYBUKt7lO/tTOlemD0vaJboHyJA/Kqe3d86026NDsH0MAKRacZm/qFLRf5g0T/z7DlSVSV0DpnctabHHoluwY/yBiExo7/HXWU6XSXpddAuQQk+a6f2lFrsqOgTDx28BIBO6ZtkPbI2OlOsMuX4b3QOkhusuq+jfuPg3Hk4AkDnFxT5Ok7XAXZ+QtHd0D9CgeI5/g2MAILOK/b6Lb9Q5Mv27pN2ie4AG8mjFNb+7zVZEh2D0GADIvFP7fcrGQb1frvdKGh/dA9Qzl67LNens0gx7KroFY8MAAIacvMxfPujqkOtUSfnoHqDO/EXSGZ2t9u3oECSDAQBsodjjL3XTe2V6lzgRACRXuUlacGOb/T46BclhAADbUCz7fu66QKYzJO0c3QMEWCdXx9S79NmODqtExyBZDABgB+b0+N75nM6WdL74sCAywqRVFdPpXS32YHQLqoMBAAxT8Tbfy8fpvZLOkmtSdA9QJRW5/tMe10dKJ9mG6BhUDwMAGKEF/b7TUwM6SdKFkg6I7gGS4tJv3PTW7hbrj25B9TEAgNFyt/Zlmmmu8yS9Sfz3hEZmKtmAzizNttXRKagN/sACEnByn//zYEXn8IFBNKC/mekDPMo3exgAQILm9Pje+bzeJdc7Je0X3QNsj5m+O2h6S/dM+3V0C2qPAQBUQUeH5x6arqNNWijXiZKao5uATQxI+pSt0SdKJ9lgdAxiMACAKiv2+z6+UW910xkmvTy6B5n3U6toXmmW3RMdglgMAKCGij1+cCWnhSbNF58VQI25dN2Eis66bpY9Hd2CeAwAIMCJ/b5H04BOMGm+S0dLykU3IdX+Yq53ltrs5ugQ1A8GABBsbr/vm9+odpmKLh0Z3YN0MalncFBv655tf4huQX1hAAB1pNjnB7jrJJfm8XkBjNFac11catXlMvPoGNQfBgBQj9xtbllH5EwnujSHMYARWml5zSsdbT+LDkH9YgAADaC9z1+Wq+j4odsER4j/drF1Fbm+aI/rAzzHHzvCHyJAgxn6dsLZkoqS2iSNC05Cffgfc72l1GZ3RoegMTAAgAZ22q0+af14tZqpVa428fTBbDJ901zvLrXaE9EpaBwMACBF2vv8ZTmpxaWWoUGwe3QTquoJd727q82+GR2CxsMAAFJq4UpvXrNaR3hObaqoRaaDJDVFdyEZJvXnK3rrjbPsN9EtaEwMACAj5vf4xHU5vdZdR8o0XaYj5ZoU3YUR2yjp0zzHH2PFAAAyqrjY85Up+tdcRUdWXNNler25XhLdhW1z6See07zumXZvdAsaHwMAwD/MXeYvzlV0sEsHmXSwpIMk7R3dBbmkL9pEXVg6wtZGxyAdGAAAtuuUXn/hRtfBltPBMh0g14GSDojuypA/y/SOzha7NToE6cIAADBihT6/WK5PR3eknUk3NTXpjBtm2F+jW5A+fCIYwMhVtIEfH6rqmef4t9ll0SFILwYAANQRk36UM81b1Go/j25BuvEd5ABQHwZlulRrNH1RCxd/VB8nAAAQ79cyze9sse9FhyA7OAEAgEim0kCTXsPFH7XGCQAAxHjcpHNKLfat6BBkEwMAAGpvWaVJC7pn2G+jQ5Bd3AIAgNpZL9dFU1eojYs/onECAAC18WNznV5qs/s7o0sAcQIAANXmLl21fp0OKbXZ/dExwLM4AQCA6vmTu97e1Wa3RYcAW+IEAACqo3vQdCAXf9QrTgAAIFlPmun9pRa7KjoE2B4GAAAkxfVDl+Z1ttovolOAHeEWAACM3YBMl06erOldbVz80Rg4AQCAsXm04prf3WorokOAkeAEAABGyaXrrEmv7m7j4o/GwwkAAIzcX910RleL3RQdAowWAwAARsCkPuW0oHOm/S66BRgLbgEAwPCsk+uiA1doVomLP1KAEwAA2BHXw4MVnb5ktj3Ac/yRFpwAAMC2uVyXPz2gg5fMtgeiY4AkcQIAAFv3RzO9rdRqS6NDgGrgBAAAtuTqtEEdWGrh4o/04gQAAJ7zNzN9oNTKc/yRfgwAAJBk0vdzOc1bNNN+Fd0C1AK3AABk3YCkj2uNpnPxR5ZwAgAgyx5RTvM7Z9pd0SFArXECACCThp7j/29c/JFVnAAAyJq/mOudnW12c3QIEIkTAABZ0tvkek2Jiz/ACQCATFhrrotLrbpcZh4dA9QDBgCAtHvIpNNLbfZQdAhQT7gFACCtXK7LbY2mlVq5+ANb4gQAQBr9j7neUmqzO6NDgHrFCQCAdDGVxq3Xa7j4A9vHCQCAtPibud5darXrokOARsAAAJAGd7tpXmerPRIdAjQKbgEAaGQDkj5ua/T6rhYu/sBIcAIAoCG59BPPaV73TLs3ugVoRJwAAGg07tJVEyo6hIs/MHqcAABoJH+W6R1dLXZrdAjQ6DgBADBiLq0LeNtv20ZN7eTiDySCEwAAI2Y5PabaPVH/aTO9r9RiV9XsHYEMYAAAGDGTHqzF9d+kH+VM8xa12M9r8HZApnALAMCIHbhcP5X0uyq+xaCkT06apCO5+APVYdEBABpToc8/Jde/V+GlH6245ne32YoqvDaAIZwAABiVQenzkh5P9EVd14zfqNdw8QeqjxMAAKPWXvaTTFqUwEs9IdM5nS12fQKvBWAYOAEAMGpdrbZYrv8Y48ssqzRpKhd/oLYYAADGpLPN/t2kD+qZD+6NxHozXTB1hdq6Z9hvq9EGYNu4BQAgEe29Ps1Ml0s6fId/set2a9L5paPtZ9UvA7A1DAAAiSr2+eGVigpmeoOkl0iaIukxSb+U607P6fquFnswNBKA/j9DX5Wo590QTwAAAABJRU5ErkJggg==;rotation=0;" vertex="1" parent="1">
          <mxGeometry x="1060" y="717" width="30" height="30" as="geometry" />
        </mxCell>
        <mxCell id="8N-V9I-CrBm6m9oQKu6N-156" value="" style="shape=image;verticalLabelPosition=bottom;labelBackgroundColor=default;verticalAlign=top;aspect=fixed;imageAspect=0;image=data:image/png,iVBORw0KGgoAAAANSUhEUgAAATcAAACiCAMAAAATIHpEAAAAk1BMVEX///8gs+b5//8AruKO0um/5/EDreEwstwArN4ir93//v9Atdv2///X8/ggs+UAqt1zx+Wy4fDn+vvx/v9hwN98zeYpsd3S8fOFz+bg+Puf2uvN7/YAqd49tdxQu99nw+C45vGV1uiq3u+c3O1vzOhYt9V6xtzP7PVIutqI1u0urdS+7vZVwuab1Obc+Pqz4+5GvuVoJX3iAAALb0lEQVR4nO2caWObOBCGAdkgwuVwlcMcdprNbpvW/f+/bmckDoHBSbzJOt2d50NjMCDxMhrNjHA1jSAIgiAIgiAIgiAIgiAIgiAIgiAIgiAIgiAIgiAIgiAIgiAIgiAIgiAIgiAI4jfAdde3iDXCJk1jr98q6zRNolv25zchspiuMzuXW2Wgw5ZDJvciG5ANpNrJrRg3dPP+tn36HYiFbrojNgxb91HF5Mad+g2QFjbVTSfdXmSum066vQrS7Q1sk92xmzMv6RYVu6S8URc/I1nAdFa1mnZ3STfjmDLGguKWPf1UbAMZbdQY7a7qVjqm+Bx4Fy/2kRinrGkO+GlTX7b7qGnCD+9OoncEu1BrlnX72YC4OLf67GYGV1qmzvQAFCv3zLp46A/zX4idEhlsYKBmPyzZG/t64CKs81G3w4d3aJkQOwOOAux9a+qXdduwPnL/QFpTH5XTl+yN9bvhuOBWM0PCdL4rCmz+FbrpH6+b1pj6nKluCvvs4/uziGvrZu8iPoluRmGz1+nGrNPHd2cZj+u8L8y8r25GeFXB5w6ijzDjrB+IF3SzD7crKZWmbvef31W34+Mf/2D29WI+6uMv6sZ3+bVXf5G7F48ArSrl8z/VbWjw9EcUaeWj8WIHVjtWKYNVdnHUzYfw7rapwpa9j27zJ/RoxLUTHbZv7I6i8+jmzu2Npaflk3rysm29cX/0JD6H5ZMXnvc18rbbUhka+dN6/54ieZ0Hplvlk9ia62aMlzNKMSbmup0UBzNt3H3U4oc/ve1xtQdLFJVdK0pH4OaEg2ON3FFLh8f4QSn5nhzbmTYTHaoAczCr6A5zv+0bzS0qbjLTrmdzSdnYnDGT16dO5zzYrwaFzT6NNA+vLuKhvag9T3TzEhu/5lUB2mR7kc/MdNsEZndDRhtDn7DxLiE3/tTqv75F92+a73YYgJixkjl5sUi6eLdLpGCM7xTbKGtxknqjpcVAXrwzZsnB7AV6+t3qx71ZK44xjPmw35HNgAzpin/JA0zstvvBgQS5NtEtSobLsbSFBy2K01PdMrM3hD5ZFKGBNJiszbU8fHzLxOAFncNPlLO2DudV58rutNbiPFYcW77rzxlPgQgBtK2TXQ0fgm23yxd7Lccymc/sL/3BZSp213WF98vFY44gNFvxLwV4NUMzGsuC83z4VzyvUbfQgauAST876GOCzbPOznRLQCtHdPeEfTKhcQsbDx5wn/t4eGof2zfIpp2GJ2UXyvPOcwMlM8QuI1c0jTbDpKvcKAxmUyrvxRAsuJ2UoMoGrmR42O+0u4oHHpM3pYFOKUGZRYchQ26Wu1jpMq8ztO8wnxqyT6NuEcxlrN4KF/hgwwPyz3QzoHlWC/d2CtBGPNF4ho0XwvVufxzfFii04wTKqvkDz6pqlsEbp3Q8gQ9GGAbKAsQh+Bb1uqW9kbW8Hydu1dsYgrYnVs5KrtuLkWEZ6Ly7p8X5tIHca/AYYS184FQ3o0FlhS/DTgk/IqYpD9zIeBMvx0EKMD6GxHTq5qRxT721dGxDoDJMFBCQ8p/DUTL2xi6OndKOZucxD9BX5QH9hA7EeHNgVsNM49XxYOIZE98jS7pt+cTRRs6ZbkK2WFopjAtLGTyhpaMPuIZSza9YoCwwJ/iFr3QqbwJFNZaOIoNu5jy0Q93URLbWGW7Cg2Ib9biTKet5oGc9HMsG84U4yOytc0m3Wh9kFfzkM92MGGRrusHN1UepCSs32zVpLhMmXFVjcHMw0QpD7IVzN1xVmGfKqArhEulslHvcN1XzPUpd7tl8PNZS35wP9VCU3O7MAvQZjl/QDQ41p1VUsE9VNxdG7lBQahibOdEdY7F2JejKJSJQc7Cbxg5DihjdhSmsJv/GhkPAnTZTN4q2yetC3Ql3ZKuL/GCTliE6mkxdCQgqLCceDBGv1tf4mtH0lnQrFCsd2lV0i+AOzP4CLth660YK7vezx/gWWjW/Ev1E2aA99A1SuFg5wnTmg9KV/liVDvo/ici+wLYrZsf27EYD7DpM7ZY4IRIDQH4O1ZG1oNtXNh310JVU0S0CY0b3cNe3pPv2FH02ct+GW6SjLLaBsaavf9XQO+COSIzEYT64P3elxsFmIvLldTvIsaAbPPL56gR4PDFh4l8x1sGGUr/zO0dFqiXdnpXZpOPXqFskQrth8n6aFRnl2FmLG1+F90vRzZXeVYwUXHngEUYaA8+LoU547LKALjXAcfpa3cwcTSKRlW3D0tnD1278wWwyhkILutWKLB31oNuzo/tMMSjQzednVNcv34SJIgs6Shen8wB6dDDlDggTRni23FS43dn4SEVAtqybkZ7NvGDKgbheF8KBIjwsRXIlxvDY1oJuDWg864U16IYPMbGViBsa+BnOubp85B7UGhuz0R5C1Ck4ZEI2dO+lGoPok+RCJTpaTAi95t+e9fmqDs6Y8kDwfSf0pGh2tfCzG6ZGGQu6wQGzGTIc5gVfBAOQX/dvoaGzfL8lzJOluHw9iOUoDHGqEHl6LBv1amXtZiG56EFXjDayotvhbALcDaWXAlWCjBnXfcCx8QiGrBpeLeimhimS4xiHyKj9wVRqO/NZRCtP19lbOEkBTGeQQ/hUf4i0tbnA+3hl/oYbR4+yoht8O400MQLrXFSOM0QmhcX4+Fiak1hmQTd3HkZjGtfrZsohjNmpPAYejD11MdvgulUmw1EjkPSo3CmkLBPZxIBWj14JGL3Av6AbBjRqqmPUfcihiRDur1QMVnHfv75O37tbyhc2bBpICM/S6dYX3CAmCMR7j5E9yy7CVJ9Hwq9jO1rbNAXAVuogaJRbv5slF8rEeLofzQIMhq+PUxFEOWOttWE+b/utFkMZeRjmD/osuFrSLYIU0x47csCz5vWQqOovBFkyS8Ze5eCMrvN4pyEL4I1ygb6AlMu/yglKaj8GPt6eVSepXNRXCNd00wruM7uVX5Vg7opJuRhF9uNOvG5RKVdYrodsMSnrisy5XAbudBvX6/NhUhWlke5ZGCfYvX9bdVxpfu7YcEmwqsY6Zr6rHHXxr+3d3GhvaP8s3R2KQ4MjuY9DlnXTNjA1m1V2PG6wyslUk8YMK+hfyMYRN6ljLa/L3OPl0qQ4HnA9jtW/+nqv8p4DiCsnVRfzHu5A48fMMmX97RqEf4Pnrzg2uTbDeieUiy11TaZzc6p/80TxmYklAGaXOKbXddOOXB4sxM8m1sx1f/A31aSkrAndhjUFpU6+TVnfNiTObn1ub9LI5atoGRcFfblYYbevl2pKGAemrTq2Pldl3TzTyM3JGiC4OZPvVG9onByOfWGMdwu4ecAsVRJ1O99xKXEwX1l02H7Yc9zPpp4yYM7wGVxD/znKbNl24LQ48exx7PwwTXWmzMz+YmW/usEmiwNvJv+iCODFw/pHtw44JK6TGkj4ZdokzBneMWt2m3ux5od59LGZajLZDu+zpknmxWmw0qYYqiXGZr6GflBkLlR/HLUbuFwh9uTNAZ+Pm0x/rLIZj8+PSdM02f27vR83ybfO1+v5hn42s4CLjs2/oJsu/eCbCvEdd9p1530c79Yb4dj8S/Y2d3MEesv5G3Ar73HNS73/bx6C+etvq+8NMn6zF+A+HdMq0WXdfN0mi+vIRtcWxPWSbs8iv5LH3O598s9GMrzuUG3Xfr8wLtXf7H3yT8dJTgpy9XTtdx+RyK/8G75P/ukwcB2vzzvWf2eU73D6MK+qWP03cTeV1Scil37XVsZWtba28P/EGNS4/DtKEm0N+v3pdZBu19HpNn0Pn3R7ERnM9WU+h0LdVyLfle7rrveikGm/W43vP8w2DQJ7+I9WCm4GFUW6r8H1SqWyG5UeBR8EQRAEQRAEQRAEQRAEQRAEQRAEQRAEQRAEQRAEQRAEQRAEQRAEQRAEQRAEQRD/On8DU4SmUWJibA0AAAAASUVORK5CYII=;imageBackground=light-dark(#f6f6f6, #ff5dff);fillStyle=auto;" vertex="1" parent="1">
          <mxGeometry x="1175" y="150" width="185" height="96.36" as="geometry" />
        </mxCell>
        <mxCell id="8N-V9I-CrBm6m9oQKu6N-161" value="" style="group" vertex="1" connectable="0" parent="1">
          <mxGeometry x="475" y="900" width="905" height="100" as="geometry" />
        </mxCell>
        <mxCell id="8N-V9I-CrBm6m9oQKu6N-159" value="" style="rounded=1;whiteSpace=wrap;html=1;fillColor=#f5f5f5;fontColor=#333333;strokeColor=#666666;shadow=1;" vertex="1" parent="8N-V9I-CrBm6m9oQKu6N-161">
          <mxGeometry x="15" y="20" width="890" height="80" as="geometry" />
        </mxCell>
        <mxCell id="8N-V9I-CrBm6m9oQKu6N-157" value="" style="dashed=0;outlineConnect=0;html=1;align=center;labelPosition=center;verticalLabelPosition=bottom;verticalAlign=top;shape=mxgraph.weblogos.github" vertex="1" parent="8N-V9I-CrBm6m9oQKu6N-161">
          <mxGeometry x="300" y="30" width="60" height="60" as="geometry" />
        </mxCell>
        <mxCell id="8N-V9I-CrBm6m9oQKu6N-160" value="&lt;b&gt;GITHUB ACTIONS - CI/CD&lt;/b&gt;" style="text;html=1;align=center;verticalAlign=middle;resizable=0;points=[];autosize=1;strokeColor=none;fillColor=none;fontSize=16;" vertex="1" parent="8N-V9I-CrBm6m9oQKu6N-161">
          <mxGeometry x="375" y="45" width="220" height="30" as="geometry" />
        </mxCell>
        <mxCell id="8N-V9I-CrBm6m9oQKu6N-163" value="" style="sketch=0;pointerEvents=1;shadow=0;dashed=0;html=1;strokeColor=none;fillColor=#505050;labelPosition=center;verticalLabelPosition=bottom;verticalAlign=top;outlineConnect=0;align=center;shape=mxgraph.office.communications.exchange_active_sync;fillColor=#2072B8;" vertex="1" parent="1">
          <mxGeometry x="903" y="860" width="49" height="49" as="geometry" />
        </mxCell>
      </root>
    </mxGraphModel>
  </diagram>
</mxfile>
